<svg width="1001" height="1001" viewBox="0 0 1001 1001" fill="none" xmlns="http://www.w3.org/2000/svg">
<path d="M486.504 961.774C491.316 961.923 496.147 962 500.995 962C502.858 962 504.718 961.987 506.575 961.965C499.877 962.048 493.184 961.985 486.504 961.774ZM507.348 961.955C507.09 961.959 506.833 961.962 506.575 961.965C506.833 961.962 507.09 961.959 507.348 961.955ZM624.553 945.253C587.572 955.516 548.722 961.284 508.628 961.935C518.692 961.764 528.768 961.265 538.834 960.435C539.014 960.42 539.194 960.405 539.374 960.39C539.392 960.388 539.411 960.386 539.429 960.385C539.588 960.372 539.748 960.358 539.907 960.345C540.166 960.323 540.425 960.3 540.684 960.278C541.272 960.228 541.86 960.178 542.447 960.126C542.781 960.096 543.114 960.065 543.447 960.034C543.995 959.984 544.543 959.935 545.091 959.883C545.369 959.856 545.648 959.829 545.927 959.802C546.515 959.745 547.104 959.687 547.691 959.628C548.028 959.594 548.364 959.559 548.7 959.524C549.229 959.47 549.758 959.416 550.286 959.359C550.737 959.311 551.188 959.262 551.639 959.213C552.012 959.172 552.385 959.132 552.758 959.09C553.365 959.022 553.971 958.952 554.577 958.882C554.873 958.848 555.169 958.815 555.465 958.78C555.857 958.734 556.249 958.685 556.642 958.638C557.121 958.58 557.6 958.524 558.079 958.465C559.803 958.252 561.524 958.029 563.241 957.797C564.805 957.586 566.366 957.366 567.925 957.14C568.076 957.118 568.226 957.096 568.377 957.074C568.793 957.013 569.208 956.951 569.623 956.889C570.103 956.817 570.583 956.746 571.062 956.673C571.639 956.585 572.216 956.495 572.792 956.405C573.003 956.372 573.213 956.339 573.424 956.306C574.071 956.204 574.717 956.1 575.363 955.995C575.605 955.956 575.847 955.917 576.089 955.877C576.672 955.781 577.255 955.684 577.838 955.586C578.106 955.541 578.374 955.497 578.642 955.451C579.197 955.357 579.752 955.261 580.307 955.165C580.611 955.112 580.916 955.06 581.221 955.007C581.813 954.903 582.406 954.797 582.998 954.69C583.227 954.649 583.455 954.608 583.684 954.566C584.257 954.463 584.83 954.358 585.402 954.252C585.751 954.187 586.099 954.122 586.447 954.057C586.864 953.978 587.282 953.9 587.698 953.82C588.124 953.739 588.549 953.657 588.975 953.575C589.505 953.473 590.034 953.37 590.563 953.266C590.842 953.211 591.12 953.156 591.397 953.101C591.933 952.994 592.47 952.887 593.005 952.778C593.388 952.701 593.772 952.623 594.155 952.544C594.57 952.459 594.984 952.373 595.398 952.287C595.827 952.198 596.255 952.108 596.683 952.018C597.1 951.929 597.518 951.84 597.936 951.751C598.368 951.658 598.801 951.565 599.233 951.471C599.663 951.377 600.093 951.285 600.522 951.19C600.857 951.117 601.192 951.041 601.526 950.967C602.069 950.846 602.611 950.725 603.153 950.603C603.401 950.547 603.648 950.489 603.896 950.433C604.467 950.302 605.039 950.173 605.61 950.04C605.902 949.972 606.194 949.903 606.485 949.835C606.984 949.718 607.483 949.602 607.981 949.483C608.251 949.419 608.521 949.353 608.79 949.288C608.833 949.278 608.877 949.268 608.92 949.258C612.473 948.413 616.018 947.527 619.555 946.599C621.222 946.161 622.888 945.711 624.553 945.253ZM486.504 961.774C486.079 961.761 485.655 961.747 485.23 961.732C485.655 961.747 486.079 961.761 486.504 961.774ZM469.224 960.901C470.287 960.974 471.382 961.046 472.524 961.117C476.562 961.37 480.606 961.569 484.654 961.713C479.022 961.517 473.416 961.22 467.837 960.823C468.294 960.849 468.756 960.877 469.224 960.901ZM640.015 400.678C649.607 406.509 663.261 415.601 671.997 422.238C694.062 439.003 715.652 459.996 732.15 480.73C740.636 491.392 754.047 510.247 754.048 511.514C754.049 511.804 754.814 513.114 755.748 514.426C760.612 521.258 771.537 542.695 777.593 557.289C799.074 609.06 804.082 666.111 792.282 724.604C783.612 767.578 763.244 812.163 736.197 847.368C686.372 912.222 612.613 952.424 528.876 960.431C507.801 961.243 480.211 961.338 468.016 960.361C437.962 957.953 409.882 953.293 382.64 946.078C382.78 945.826 387.779 945.532 393.873 945.422C400.054 945.311 407.938 944.968 411.394 944.658C414.848 944.349 418.293 944.073 419.049 944.045C422.941 943.901 439.999 941.208 451.138 938.979C497.697 929.66 542.449 909.775 580.876 881.332C645.37 833.594 687.856 766.983 704.768 687.088C706.009 681.221 710.578 652.093 710.459 650.802C710.423 650.414 710.774 644.756 711.241 638.229C714.043 599.077 711.244 565.674 701.616 523.411C699.568 514.419 693.84 496.267 689.418 484.752C676.925 452.22 660.064 423.797 640.015 400.678ZM449.121 959.11C455.323 959.805 461.563 960.377 467.837 960.823C464.747 960.65 461.92 960.452 459.472 960.218C456.013 959.887 452.563 959.516 449.121 959.11ZM296.42 914.233C296.881 914.462 297.343 914.689 297.805 914.916C298.123 915.072 298.442 915.228 298.761 915.384C299.231 915.613 299.701 915.843 300.172 916.07C300.512 916.235 300.853 916.4 301.193 916.563C301.596 916.757 301.999 916.948 302.402 917.141C302.746 917.305 303.09 917.469 303.434 917.632C303.842 917.825 304.251 918.018 304.659 918.21C305.03 918.384 305.4 918.559 305.771 918.732C306.172 918.92 306.575 919.106 306.977 919.292C307.318 919.45 307.659 919.61 308.001 919.768C308.467 919.982 308.934 920.195 309.4 920.408C309.769 920.576 310.137 920.745 310.506 920.912C310.816 921.053 311.127 921.192 311.438 921.332C311.903 921.542 312.367 921.752 312.833 921.96C313.011 922.039 313.189 922.118 313.367 922.197C313.977 922.469 314.587 922.74 315.198 923.009C315.417 923.105 315.637 923.2 315.856 923.296C316.381 923.526 316.905 923.756 317.431 923.983C317.716 924.107 318.002 924.23 318.287 924.353C318.789 924.569 319.291 924.786 319.794 925.001C319.968 925.075 320.144 925.148 320.318 925.223C321.952 925.918 323.589 926.603 325.229 927.278C332.915 930.451 340.705 933.422 348.594 936.184C348.652 936.204 348.71 936.224 348.769 936.244C355.279 938.521 361.857 940.656 368.497 942.646C368.527 942.654 368.557 942.662 368.587 942.671C371.899 943.662 375.227 944.619 378.569 945.537C378.626 945.553 378.682 945.568 378.738 945.583C387.106 947.879 395.569 949.944 404.12 951.772C404.213 951.792 404.306 951.812 404.399 951.832C406.083 952.191 407.771 952.54 409.461 952.881C409.485 952.886 409.509 952.89 409.532 952.895C410.361 953.061 411.191 953.226 412.021 953.389C412.097 953.403 412.172 953.419 412.248 953.434C421.748 955.286 431.353 956.846 441.052 958.105C441.069 958.108 441.086 958.109 441.103 958.111C441.909 958.216 442.717 958.319 443.524 958.419C443.6 958.428 443.675 958.439 443.75 958.448C443.724 958.445 443.697 958.441 443.671 958.438C443.726 958.444 443.781 958.451 443.836 958.458L443.75 958.448C445.538 958.679 447.329 958.899 449.121 959.11C394.497 952.993 342.759 937.333 295.612 913.832C295.881 913.966 296.151 914.1 296.42 914.233ZM811.753 841.513C802.914 849.846 794.893 856.629 784.483 864.783C737.642 901.477 682.078 929.417 624.553 945.253C673.375 931.703 718.937 910.321 759.805 882.545C759.872 882.5 759.939 882.455 760.006 882.409L760.144 882.313C778.32 869.936 795.565 856.294 811.753 841.513ZM670.229 528.403C672.888 539.309 676.109 555.373 677.592 566.233C681.34 593.69 681.763 623.8 678.769 650.127C677.229 663.667 673.38 686.482 672.484 687.379C672.28 687.583 671.894 689.051 671.627 690.641C670.235 698.911 662.802 721.794 656.765 736.397C635.346 788.193 598.547 832.075 548.843 865.092C512.324 889.349 466.396 906.473 422.377 912.241C341.287 922.868 260.705 899.141 195.832 845.592C184.472 835.074 170.901 821.802 161.35 811.802C149.899 799.352 139.229 786.375 129.521 773.015C120.334 760.369 118.791 758.088 110.57 744.987C106.186 738.003 102.6 731.911 102.597 731.449C102.598 730.993 105.941 733.825 110.026 737.745C135.369 762.063 159.661 779.225 190.873 794.86C236.676 817.805 285.233 829.286 336.457 829.279C358.085 829.277 373.354 828.047 391.325 824.855C411.907 821.201 415.249 820.366 434.949 813.958C487.94 796.722 537.308 764.897 578.414 721.479C598.869 699.873 611.688 683.255 626.281 659.427C651.852 617.674 666.972 571.811 670.229 528.403ZM204.334 853.872C232.146 877.279 262.764 897.458 295.612 913.832C295.576 913.814 295.54 913.796 295.504 913.778C295.049 913.552 294.595 913.325 294.141 913.097C293.858 912.955 293.575 912.813 293.293 912.671C292.812 912.428 292.332 912.185 291.852 911.94C291.574 911.799 291.296 911.657 291.019 911.515C290.532 911.266 290.046 911.016 289.56 910.765C289.257 910.608 288.954 910.452 288.651 910.295C288.216 910.069 287.781 909.842 287.346 909.614C287.01 909.439 286.674 909.263 286.339 909.086C285.855 908.831 285.371 908.575 284.888 908.318C284.659 908.197 284.429 908.076 284.2 907.954C283.749 907.713 283.298 907.471 282.847 907.229C282.493 907.039 282.139 906.848 281.786 906.657C281.505 906.505 281.225 906.353 280.944 906.2C280.461 905.937 279.978 905.674 279.495 905.409C279.267 905.284 279.038 905.158 278.81 905.032C278.289 904.746 277.769 904.459 277.25 904.171C277.136 904.108 277.023 904.045 276.909 903.981C275.569 903.236 274.232 902.483 272.898 901.723C271.382 900.858 269.868 899.985 268.359 899.102C267.932 898.852 267.507 898.599 267.08 898.348C266.789 898.176 266.498 898.005 266.207 897.833C265.777 897.578 265.347 897.321 264.917 897.064C264.616 896.885 264.314 896.706 264.014 896.525C263.648 896.306 263.282 896.085 262.917 895.864C262.518 895.623 262.118 895.382 261.72 895.14C261.478 894.993 261.238 894.844 260.997 894.697C260.491 894.388 259.985 894.079 259.479 893.768C259.122 893.548 258.766 893.327 258.409 893.105C258.043 892.878 257.676 892.651 257.31 892.423C256.952 892.2 256.595 891.974 256.237 891.75C255.861 891.514 255.483 891.279 255.107 891.041C254.73 890.802 254.352 890.562 253.975 890.322C253.626 890.101 253.278 889.88 252.931 889.657C252.57 889.426 252.209 889.194 251.849 888.962C251.487 888.729 251.125 888.497 250.764 888.264C250.443 888.056 250.123 887.846 249.803 887.638C249.366 887.353 248.929 887.068 248.492 886.782C248.212 886.599 247.933 886.415 247.653 886.23C247.255 885.968 246.856 885.705 246.458 885.44C246.087 885.194 245.716 884.947 245.346 884.699C244.984 884.458 244.622 884.216 244.261 883.974C243.96 883.771 243.659 883.568 243.358 883.365C242.869 883.035 242.379 882.703 241.891 882.37C241.644 882.202 241.396 882.033 241.149 881.864C240.69 881.55 240.23 881.234 239.771 880.918C239.521 880.745 239.271 880.573 239.021 880.399C238.517 880.051 238.014 879.701 237.511 879.35C237.305 879.206 237.099 879.063 236.894 878.919C236.429 878.593 235.965 878.266 235.501 877.938C235.23 877.747 234.958 877.556 234.687 877.363C234.308 877.095 233.929 876.825 233.551 876.555C233.217 876.316 232.883 876.078 232.55 875.839C232.08 875.502 231.611 875.162 231.143 874.823C230.902 874.649 230.662 874.475 230.422 874.301C230.075 874.049 229.728 873.795 229.382 873.542C228.988 873.254 228.593 872.966 228.199 872.677C227.747 872.344 227.296 872.009 226.845 871.675C226.657 871.535 226.467 871.397 226.279 871.257C225.732 870.85 225.187 870.441 224.642 870.031C223.708 869.33 222.775 868.625 221.846 867.916C220.521 866.906 219.2 865.888 217.884 864.861C217.589 864.631 217.295 864.399 217 864.168C216.594 863.85 216.188 863.531 215.782 863.211C215.556 863.032 215.329 862.853 215.104 862.674C214.631 862.299 214.158 861.924 213.687 861.548C213.37 861.295 213.055 861.041 212.739 860.787C212.359 860.482 211.978 860.176 211.599 859.869C211.313 859.639 211.028 859.407 210.743 859.176C210.335 858.845 209.927 858.513 209.521 858.181C209.282 857.986 209.045 857.79 208.808 857.595C208.358 857.225 207.907 856.855 207.458 856.483C207.24 856.303 207.022 856.121 206.804 855.939C206.341 855.555 205.879 855.17 205.417 854.783C205.245 854.639 205.073 854.495 204.901 854.351C204.712 854.192 204.523 854.031 204.334 853.872ZM710.315 911.832C710.076 911.954 709.836 912.074 709.597 912.195C709.86 912.062 710.124 911.929 710.387 911.795L710.315 911.832ZM726.315 903.272C726.103 903.391 725.888 903.507 725.675 903.626C725.969 903.461 726.265 903.299 726.56 903.134L726.315 903.272ZM566.221 324.375C593.677 320.627 623.788 320.205 650.115 323.199C663.655 324.739 686.471 328.588 687.367 329.483C687.573 329.688 689.04 330.073 690.628 330.34C698.898 331.732 721.783 339.165 736.385 345.203C788.182 366.622 832.063 403.421 865.08 453.125C889.337 489.643 906.461 535.572 912.229 579.591C922.945 661.357 898.73 742.609 844.232 807.758C838.6 814.491 828.576 824.912 818.534 834.712C792.513 859.493 763.739 881.163 732.897 899.148C732.398 899.378 732.097 899.472 732.027 899.403C731.847 899.223 735.212 895.435 739.504 890.985C743.796 886.537 749.128 880.719 751.353 878.057C753.577 875.395 755.818 872.764 756.333 872.21C758.983 869.356 769.141 855.391 775.44 845.938C801.773 806.426 819.356 760.72 826.416 713.437C838.265 634.077 821.206 556.933 776.67 488.48C773.4 483.455 756.036 459.631 755.036 458.798C754.738 458.551 750.985 454.3 746.699 449.354C720.996 419.688 695.396 398.048 658.704 374.972C650.897 370.062 634.013 361.276 622.743 356.261C590.906 342.091 558.885 333.915 528.36 331.744C539.267 329.085 555.35 325.86 566.221 324.375ZM759.987 882.42C759.926 882.461 759.866 882.503 759.805 882.545C759.611 882.676 759.418 882.807 759.225 882.938C759.479 882.765 759.733 882.592 759.987 882.42ZM798.587 853.052C797.181 854.243 795.772 855.426 794.355 856.598C790.863 859.486 787.337 862.313 783.781 865.082C782.51 866.062 781.232 867.032 779.952 867.998C781.659 866.699 783.355 865.387 785.043 864.064C785.221 863.925 785.4 863.787 785.577 863.647C785.989 863.324 786.398 862.999 786.809 862.674C787.008 862.516 787.207 862.358 787.406 862.2C788.578 861.27 789.746 860.333 790.908 859.392C791.039 859.286 791.17 859.18 791.3 859.074C791.854 858.624 792.408 858.173 792.96 857.721C793.015 857.676 793.069 857.631 793.124 857.586C793.723 857.094 794.322 856.602 794.919 856.107C794.986 856.052 795.054 855.995 795.121 855.939C795.619 855.526 796.116 855.111 796.612 854.695L796.845 854.503C796.828 854.516 796.811 854.529 796.795 854.543C796.906 854.45 797.018 854.357 797.129 854.264C797.034 854.343 796.94 854.423 796.845 854.503C797.434 854.016 798.012 853.533 798.587 853.052ZM153.971 804.471C153.946 804.442 153.922 804.412 153.896 804.384C153.925 804.417 153.954 804.45 153.982 804.482C153.979 804.478 153.974 804.475 153.971 804.471C154.003 804.507 154.035 804.544 154.067 804.581C155.239 805.917 156.419 807.247 157.608 808.572C157.711 808.686 157.813 808.8 157.915 808.914C159.061 810.188 160.215 811.457 161.377 812.722C161.531 812.89 161.686 813.059 161.841 813.227C162.21 813.627 162.58 814.027 162.95 814.426C163.426 814.938 163.903 815.45 164.382 815.961C164.623 816.218 164.865 816.475 165.106 816.731C165.514 817.165 165.923 817.599 166.333 818.031C166.48 818.187 166.628 818.343 166.775 818.498C167.366 819.119 167.958 819.738 168.553 820.356C168.711 820.521 168.871 820.686 169.029 820.851C170.236 822.102 171.451 823.348 172.674 824.589C172.779 824.695 172.883 824.802 172.988 824.908C173.067 824.988 173.146 825.068 173.226 825.148C173.821 825.75 174.417 826.351 175.017 826.95C175.223 827.157 175.432 827.362 175.639 827.568C175.785 827.714 175.932 827.86 176.079 828.006C176.543 828.467 177.007 828.926 177.472 829.385C177.604 829.515 177.737 829.645 177.869 829.775C178.831 830.721 179.796 831.663 180.765 832.599C181.015 832.84 181.265 833.081 181.516 833.322C181.914 833.705 182.313 834.088 182.712 834.47C182.915 834.664 183.12 834.858 183.323 835.052C183.778 835.485 184.232 835.917 184.688 836.348C184.914 836.561 185.141 836.773 185.367 836.985C185.831 837.422 186.295 837.858 186.761 838.292C186.879 838.402 186.998 838.511 187.116 838.621C187.63 839.099 188.144 839.576 188.659 840.052C188.904 840.278 189.151 840.504 189.396 840.73C189.772 841.075 190.148 841.42 190.524 841.764C190.819 842.033 191.115 842.3 191.41 842.568C191.775 842.9 192.14 843.231 192.506 843.561C192.829 843.852 193.153 844.144 193.478 844.435C193.809 844.732 194.14 845.028 194.472 845.324C194.815 845.63 195.158 845.935 195.502 846.239C195.834 846.534 196.166 846.827 196.499 847.12C196.77 847.359 197.042 847.598 197.313 847.837C197.717 848.191 198.12 848.544 198.524 848.896C198.818 849.152 199.113 849.407 199.407 849.662C199.799 850.002 200.191 850.342 200.584 850.68C200.836 850.896 201.088 851.113 201.34 851.329C201.836 851.755 202.334 852.178 202.832 852.602C202.954 852.705 203.076 852.809 203.198 852.913C203.576 853.234 203.955 853.553 204.334 853.872C186.267 838.667 169.385 822.101 153.845 804.33C153.887 804.377 153.928 804.424 153.971 804.471ZM850.608 801.489C838.47 815.599 825.493 828.966 811.753 841.513C811.912 841.363 812.072 841.214 812.231 841.063C825.436 828.988 837.962 816.094 849.732 802.473C850.027 802.144 850.317 801.815 850.608 801.489ZM80.7246 690.723C99.4931 732.234 124.232 770.467 153.845 804.33C151.196 801.402 148.833 798.698 146.906 796.364C143.543 792.29 140.255 788.164 137.04 783.995C123.297 766.367 111.012 747.97 100.188 728.968C100.126 728.858 100.064 728.747 100.001 728.637C99.6173 727.962 99.2355 727.286 98.8555 726.609C98.8219 726.55 98.7884 726.49 98.7549 726.43C98.3918 725.783 98.0296 725.136 97.6699 724.487C97.5859 724.336 97.5018 724.184 97.418 724.032C93.2608 716.519 89.3297 708.915 85.624 701.229C85.5747 701.126 85.5248 701.024 85.4756 700.922C85.154 700.254 84.8348 699.584 84.5166 698.914C84.4556 698.786 84.3939 698.658 84.333 698.529C84.0038 697.835 83.6761 697.139 83.3506 696.443C83.3113 696.36 83.2726 696.275 83.2334 696.191C82.545 694.718 81.8643 693.242 81.1924 691.763C81.1128 691.588 81.0344 691.412 80.9551 691.236C80.8777 691.065 80.8018 690.894 80.7246 690.723ZM961.51 522.221C961.148 534.28 960.272 544.706 958.687 557.762C955.627 582.948 950.32 608.129 942.954 632.753C929.611 677.903 909.329 721.073 882.362 760.376C870.78 777.257 862.316 788.382 850.608 801.489C915.728 725.793 956.685 628.715 961.51 522.221ZM56.3203 382.251C56.644 381.929 57.0057 386.296 57.1221 391.957C57.8465 427.072 62.8879 456.385 73.9023 489.511C90.0655 538.122 116.283 580.577 152.509 616.792C167.804 632.084 179.47 642.01 194.435 652.461C211.572 664.431 214.527 666.204 232.987 675.603C282.646 700.885 340.057 713.29 399.825 711.654C429.566 710.84 450.38 708.154 477.549 701.624C524.87 690.25 567.762 668.703 600.683 640.561C593.859 651.607 583.248 667.359 576.739 675.617C558.986 698.14 535.708 721.038 514.243 737.095C504.716 744.222 487.151 756.114 486.144 756.119C485.768 756.119 484.821 756.69 484.04 757.387C483.255 758.085 476.345 761.885 468.68 765.83C422.042 789.835 374.36 800.226 323.564 797.455C285.977 795.403 252.72 787.673 218.656 773.07C207.665 768.359 186.761 757.692 184.376 755.578C183.595 754.887 182.68 754.321 182.344 754.32C181.136 754.318 166.727 744.616 157.014 737.266C92.9726 688.799 52.537 618.083 42.8154 537.549C42.307 533.338 41.7821 528.99 41.4336 526.099C41.1575 518.135 40.9808 509.415 40.9219 501.037C40.9395 497.501 40.9677 493.732 41.0068 489.877C41.0523 485.375 41.1058 481.41 41.1699 477.87C41.9333 461.905 43.5257 446.11 45.9688 430.682C48.4142 415.244 48.9354 412.539 52.3857 397.463C54.2246 389.423 55.9959 382.579 56.3203 382.251ZM41.3506 536.549C41.3514 536.56 41.3527 536.571 41.3535 536.582C41.4224 537.484 41.4943 538.386 41.5684 539.287C41.5928 539.584 41.6195 539.881 41.6445 540.178C41.7 540.837 41.7552 541.496 41.8135 542.154C41.8287 542.326 41.8449 542.499 41.8604 542.671C41.9262 543.406 41.9932 544.141 42.0625 544.875C42.1076 545.353 42.1546 545.831 42.2012 546.309C42.2387 546.693 42.276 547.077 42.3145 547.461C42.3679 547.995 42.4223 548.529 42.4775 549.063C42.5243 549.514 42.572 549.966 42.6201 550.417C42.663 550.819 42.7061 551.221 42.75 551.622C42.8056 552.131 42.8627 552.639 42.9199 553.147C42.9795 553.677 43.0392 554.206 43.1006 554.734C43.1398 555.072 43.1798 555.41 43.2197 555.747C43.2848 556.297 43.3509 556.847 43.418 557.397C43.4775 557.885 43.5376 558.373 43.5986 558.86C43.6461 559.239 43.6938 559.618 43.7422 559.996C43.8161 560.575 43.8917 561.153 43.9678 561.731C44.0222 562.145 44.0763 562.559 44.1318 562.973C44.1739 563.286 44.2171 563.599 44.2598 563.911C44.3404 564.502 44.421 565.093 44.5039 565.684C44.5497 566.01 44.5971 566.335 44.6436 566.661C44.7277 567.251 44.812 567.841 44.8984 568.431C45.3022 571.185 45.7304 573.932 46.1826 576.67C46.2295 576.954 46.2778 577.238 46.3252 577.522C46.4405 578.212 46.5564 578.902 46.6748 579.591C46.6947 579.707 46.7154 579.823 46.7354 579.938C46.8641 580.684 46.9946 581.43 47.127 582.175C47.1775 582.459 47.2292 582.744 47.2803 583.028C47.4001 583.695 47.5209 584.362 47.6436 585.028C47.7126 585.403 47.7816 585.778 47.8516 586.152C47.9384 586.617 48.026 587.082 48.1143 587.547C48.2013 588.005 48.2896 588.462 48.3779 588.92C48.4555 589.322 48.5337 589.724 48.6123 590.125C48.7155 590.652 48.8198 591.179 48.9248 591.705C49.021 592.187 49.1172 592.669 49.2148 593.15C49.283 593.486 49.3521 593.822 49.4209 594.157C49.5336 594.706 49.648 595.255 49.7627 595.804C49.8444 596.195 49.9261 596.586 50.0088 596.977C50.1031 597.422 50.1993 597.867 50.2949 598.312C50.3992 598.797 50.5026 599.282 50.6084 599.767C50.6675 600.037 50.7275 600.308 50.7871 600.578C50.9222 601.192 51.0577 601.805 51.1953 602.418C51.8018 605.119 52.4312 607.812 53.085 610.495C53.1617 610.81 53.241 611.125 53.3184 611.439C53.4648 612.035 53.6111 612.63 53.7598 613.225C53.7994 613.383 53.8391 613.542 53.8789 613.7C54.0443 614.358 54.2117 615.016 54.3799 615.673C54.5129 616.192 54.6475 616.712 54.7822 617.23C54.8754 617.589 54.9685 617.948 55.0625 618.307C55.1797 618.753 55.2985 619.2 55.417 619.646C55.5622 620.192 55.7074 620.738 55.8545 621.284C55.9199 621.527 55.986 621.769 56.0518 622.012C56.2125 622.604 56.374 623.197 56.5371 623.788C56.6362 624.148 56.736 624.507 56.8359 624.866C56.9804 625.385 57.1262 625.904 57.2725 626.423C57.374 626.783 57.4757 627.143 57.5781 627.503C57.7237 628.014 57.8712 628.525 58.0186 629.035C58.1389 629.452 58.2584 629.87 58.3799 630.286C58.4657 630.581 58.5532 630.875 58.6396 631.169C58.7955 631.699 58.9507 632.23 59.1084 632.76C59.2564 633.257 59.407 633.753 59.5566 634.249C59.683 634.668 59.808 635.088 59.9355 635.507C60.1648 636.259 60.3969 637.011 60.6299 637.762C60.6623 637.866 60.694 637.972 60.7266 638.076C61.2641 639.804 61.8119 641.529 62.3691 643.248C62.4797 643.589 62.5927 643.93 62.7041 644.271C62.8798 644.808 63.0549 645.346 63.2324 645.883C63.3166 646.137 63.4018 646.391 63.4863 646.646C63.6808 647.23 63.8765 647.814 64.0732 648.397C64.2071 648.794 64.3416 649.191 64.4766 649.588C64.6464 650.087 64.8168 650.586 64.9883 651.084C65.0868 651.37 65.1861 651.656 65.2852 651.942C65.4749 652.49 65.6656 653.038 65.8574 653.585C65.9749 653.92 66.0927 654.255 66.2109 654.59C66.3921 655.103 66.5749 655.615 66.7578 656.127C66.8952 656.511 67.0325 656.896 67.1709 657.28C67.3305 657.723 67.4914 658.166 67.6523 658.608C67.8105 659.043 67.9695 659.478 68.1289 659.912C68.256 660.258 68.3838 660.605 68.5117 660.95C68.7083 661.482 68.905 662.013 69.1035 662.543C69.2049 662.814 69.3073 663.085 69.4092 663.355C69.6129 663.897 69.8168 664.438 70.0225 664.979C70.1927 665.426 70.3646 665.872 70.5361 666.318C70.6973 666.738 70.8581 667.157 71.0205 667.576C71.0921 667.761 71.1645 667.945 71.2363 668.13C71.9345 669.924 72.6443 671.712 73.3643 673.495C73.584 674.039 73.8036 674.584 74.0254 675.127C74.1755 675.495 74.3275 675.861 74.4785 676.229C74.5277 676.348 74.5767 676.468 74.626 676.587C74.7154 676.804 74.8038 677.022 74.8936 677.239C74.9254 677.316 74.9573 677.394 74.9893 677.471C75.1215 677.79 75.2558 678.107 75.3887 678.426C76.7252 681.635 78.0994 684.832 79.5117 688.017C58.6764 641.129 45.4359 590.119 41.3506 536.549ZM270.519 102.609C270.975 102.611 268.143 105.953 264.223 110.038C239.905 135.38 222.743 159.673 207.107 190.885C184.163 236.687 172.681 285.246 172.688 336.47C172.691 358.098 173.921 373.367 177.112 391.338C180.767 411.92 181.602 415.262 188.01 434.962C205.246 487.953 237.07 537.32 280.489 578.427C302.095 598.881 318.713 611.7 342.541 626.294C384.044 651.712 429.609 666.803 472.786 670.183C460.15 673.169 441.51 676.804 431.069 678.041C402.59 681.413 369.939 681.146 343.407 677.321C331.631 675.624 310.801 671.613 310.085 670.904C309.82 670.639 308.746 670.373 307.701 670.313C306.652 670.252 299.079 668.052 290.869 665.422C240.918 649.418 199.854 623.049 165.896 585.172C140.768 557.143 122.717 528.16 108.956 493.748C104.516 482.645 97.2786 460.324 97.0859 457.141C97.023 456.1 96.7759 455.052 96.5381 454.813C95.6853 453.957 92.3572 436.908 90.6865 424.843C79.6739 345.288 101.085 266.692 151.157 202.871C153.779 199.53 156.485 196.08 158.283 193.789C163.706 187.977 169.73 181.703 175.598 175.752C178.121 173.253 180.819 170.595 183.587 167.883C186.808 164.726 189.653 161.958 192.205 159.497C204.03 148.752 216.321 138.713 228.953 129.534C241.599 120.347 243.88 118.804 256.98 110.583C263.967 106.198 270.059 102.611 270.519 102.609ZM557.277 224.375C609.049 202.894 666.098 197.886 724.591 209.686C767.566 218.356 812.15 238.724 847.355 265.771C912.75 316.011 953.082 390.588 960.613 475.19C961.754 487.999 961.832 513.063 960.973 531.093C960.947 531.49 960.921 531.886 960.895 532.283C960.811 533.523 960.724 534.762 960.63 536.001C960.585 536.596 960.538 537.192 960.49 537.787C960.383 539.137 960.27 540.486 960.15 541.835C959.522 548.41 958.611 555.773 956.937 568.376C955.677 577.854 951.671 597.806 948.859 609.738C948.339 611.872 947.803 614.001 947.253 616.125C946.693 618.147 946.277 619.331 946.075 619.334C945.82 619.329 945.52 614.273 945.409 608.095C945.299 601.914 944.955 594.029 944.646 590.573C944.336 587.119 944.06 583.674 944.032 582.918C943.888 579.026 941.197 561.969 938.967 550.83C929.648 504.271 909.763 459.519 881.32 421.092C833.583 356.598 766.971 314.112 687.076 297.2C681.394 295.998 653.882 291.673 650.991 291.512L650.79 291.509C650.404 291.545 644.745 291.193 638.217 290.726C599.065 287.924 565.661 290.724 523.398 300.352C514.406 302.4 496.254 308.128 484.739 312.55C452.209 325.042 423.786 341.902 400.667 361.95C406.498 352.358 415.589 338.707 422.226 329.971C438.99 307.906 459.983 286.316 480.717 269.817C491.38 261.332 510.234 247.921 511.501 247.92C511.79 247.919 513.101 247.155 514.413 246.22C521.245 241.356 542.683 230.431 557.277 224.375ZM485.677 40.9336C491.942 40.8873 501.703 40.9141 512.091 41.0196C516.592 41.065 520.555 41.1176 524.095 41.1817C540.061 41.945 555.857 43.5383 571.286 45.9815C586.724 48.4269 589.428 48.9471 604.505 52.3975C612.544 54.2363 619.387 56.0085 619.716 56.333C620.038 56.6567 615.671 57.0174 610.011 57.1338C574.896 57.8582 545.583 62.9006 512.457 73.9151C463.846 90.0782 421.391 116.295 385.176 152.521C369.884 167.816 359.958 179.483 349.507 194.447C337.537 211.585 335.763 214.539 326.364 233C301.082 282.658 288.677 340.07 290.312 399.838C291.127 429.579 293.814 450.393 300.344 477.562C311.718 524.882 333.263 567.774 361.405 600.694C350.359 593.871 334.608 583.261 326.351 576.752C303.828 558.998 280.929 535.721 264.873 514.256C257.747 504.73 245.857 487.167 245.849 486.156C245.849 485.781 245.278 484.833 244.581 484.053C243.883 483.269 240.084 476.358 236.138 468.691C212.133 422.054 201.742 374.372 204.513 323.577C206.564 285.989 214.295 252.733 228.897 218.669C233.609 207.678 244.275 186.774 246.39 184.389C247.081 183.609 247.647 182.693 247.647 182.356C247.65 181.148 257.352 166.74 264.702 157.026C312.79 93.4855 382.781 53.1819 462.533 43.0606L464.419 42.8281C469.249 42.245 474.257 41.6404 477.044 41.3047C479.921 41.1543 482.799 41.032 485.677 40.9336ZM958.103 560.624C958.035 561.144 957.966 561.663 957.896 562.183C957.998 561.417 958.098 560.651 958.196 559.886L958.103 560.624ZM41.2285 534.884C41.1961 534.444 41.1635 534.004 41.1328 533.564C41.1267 533.476 41.1212 533.388 41.1152 533.3C41.1518 533.828 41.1902 534.356 41.2285 534.884ZM40.8555 529.281C40.8843 529.757 40.9131 530.233 40.9434 530.708C40.9768 531.233 41.0127 531.758 41.0479 532.283C41.0706 532.622 41.0924 532.961 41.1152 533.3C41.0226 531.962 40.9366 530.622 40.8555 529.281ZM40.8555 529.281C40.8317 528.889 40.807 528.496 40.7842 528.104C40.7784 528.005 40.7732 527.906 40.7676 527.807C40.7958 528.298 40.8257 528.79 40.8555 529.281ZM40.6426 525.524C40.5999 524.71 40.56 523.894 40.5215 523.078C40.5367 523.399 40.5516 523.72 40.5674 524.04C40.5839 524.376 40.5999 524.711 40.6172 525.047C40.6254 525.206 40.6342 525.365 40.6426 525.524ZM40.5215 523.078C40.5096 522.828 40.4968 522.578 40.4854 522.327C40.4826 522.268 40.4802 522.208 40.4775 522.148C40.4915 522.458 40.5069 522.768 40.5215 523.078ZM960.651 465.597C961.539 477.281 961.991 489.088 961.991 501C961.991 508.112 961.828 515.187 961.51 522.221C961.518 521.951 961.528 521.681 961.535 521.409C962.337 503.498 962.076 485.486 960.762 467.496C960.728 466.858 960.688 466.225 960.651 465.597ZM40.1387 512.38C40.1474 512.739 40.1575 513.098 40.167 513.457C40.1848 514.127 40.203 514.796 40.2236 515.465C40.2319 515.734 40.2412 516.003 40.25 516.272C40.2706 516.905 40.2923 517.539 40.3154 518.171C40.33 518.568 40.3458 518.965 40.3613 519.362C40.3809 519.863 40.4016 520.363 40.4229 520.863C40.441 521.292 40.4584 521.72 40.4775 522.148C40.3284 518.846 40.214 515.536 40.1348 512.216C40.1361 512.271 40.1373 512.325 40.1387 512.38ZM40.083 509.76C40.0861 509.928 40.0895 510.096 40.0928 510.264C40.0999 510.624 40.1085 510.984 40.1162 511.344C40.0914 510.216 40.0704 509.086 40.0537 507.956C40.0624 508.558 40.0718 509.159 40.083 509.76ZM40.0537 507.956C40.0523 507.86 40.0502 507.764 40.0488 507.668C40.0474 507.568 40.0464 507.467 40.0449 507.367C40.0476 507.564 40.0508 507.76 40.0537 507.956ZM40.0449 507.367C40.0422 507.163 40.0386 506.96 40.0361 506.756C40.0388 506.96 40.0419 507.163 40.0449 507.367ZM40.0361 506.756C40.0355 506.708 40.0347 506.661 40.0342 506.613C40.0279 506.085 40.0241 505.556 40.0195 505.027C40.0181 504.859 40.015 504.691 40.0137 504.523C40.0128 504.413 40.0124 504.303 40.0117 504.192C40.0175 505.047 40.0257 505.902 40.0361 506.756ZM40.0117 504.192C40.0085 503.723 40.0067 503.253 40.0049 502.783C40.0065 503.253 40.0086 503.723 40.0117 504.192ZM40.0361 495.284C40.013 497.187 40 499.092 40 501C40 501.595 40.0026 502.189 40.0049 502.783C40.0044 502.64 40.0043 502.497 40.0039 502.354C40.0035 502.206 40.0032 502.058 40.0029 501.91C40.0023 501.604 40 501.297 40 500.99C40 500.677 40.0023 500.364 40.0029 500.051C40.0032 499.925 40.0036 499.799 40.0039 499.674C40.0041 499.59 40.0036 499.506 40.0039 499.422C40.0053 499.001 40.0063 498.58 40.0088 498.159C40.0106 497.863 40.0143 497.566 40.0166 497.27C40.0185 497.027 40.0201 496.784 40.0225 496.541C40.0262 496.146 40.0304 495.752 40.0352 495.357C40.0354 495.333 40.0358 495.309 40.0361 495.284ZM40.0361 495.284C40.0394 495.017 40.0432 494.75 40.0469 494.482C40.0431 494.75 40.0394 495.017 40.0361 495.284ZM40.0469 494.482C40.048 494.405 40.0487 494.327 40.0498 494.249C40.0572 493.731 40.0651 493.213 40.0742 492.695C40.0748 492.664 40.0756 492.631 40.0762 492.6C40.0777 492.513 40.0794 492.426 40.0811 492.339C40.0679 493.053 40.0568 493.768 40.0469 494.482ZM40.0811 492.339C40.0865 492.041 40.0926 491.744 40.0986 491.446C40.0926 491.744 40.0866 492.041 40.0811 492.339ZM40.0986 491.446C40.1003 491.364 40.1018 491.282 40.1035 491.199C40.1117 490.808 40.1198 490.416 40.1289 490.025C40.1329 489.854 40.1374 489.682 40.1416 489.511C40.1258 490.156 40.1118 490.801 40.0986 491.446ZM40.1865 487.841C40.1988 487.405 40.2102 486.968 40.2236 486.532C40.2269 486.427 40.2303 486.321 40.2334 486.215C40.2163 486.757 40.2017 487.299 40.1865 487.841ZM40.2334 486.215C40.2358 486.14 40.2378 486.065 40.2402 485.99C40.2379 486.065 40.2356 486.14 40.2334 486.215ZM40.2402 485.99C40.2413 485.956 40.2421 485.922 40.2432 485.889C40.2695 485.071 40.2983 484.254 40.3291 483.438C40.2973 484.288 40.2675 485.139 40.2402 485.99ZM40.3291 483.438C40.3468 482.964 40.3666 482.491 40.3857 482.018C40.3665 482.491 40.347 482.964 40.3291 483.438ZM40.3857 482.018C40.3963 481.757 40.406 481.496 40.417 481.235C40.4206 481.15 40.4241 481.063 40.4277 480.978C40.4344 480.823 40.4405 480.668 40.4473 480.513C40.4496 480.46 40.4518 480.407 40.4541 480.355C40.4297 480.909 40.4082 481.463 40.3857 482.018ZM40.4541 480.355C40.4696 480.003 40.4867 479.652 40.5029 479.301C40.4864 479.652 40.4697 480.003 40.4541 480.355ZM40.5029 479.301C40.5208 478.922 40.5382 478.544 40.5566 478.166C40.5616 478.064 40.5663 477.962 40.5713 477.86C40.5736 477.813 40.5757 477.765 40.5781 477.718C40.5519 478.245 40.5274 478.773 40.5029 479.301ZM40.6846 475.712C40.7013 475.402 40.717 475.091 40.7344 474.781C40.738 474.716 40.7414 474.65 40.7451 474.585C40.7239 474.96 40.7049 475.336 40.6846 475.712ZM40.7451 474.585C40.757 474.374 40.7691 474.164 40.7812 473.953C40.7691 474.164 40.757 474.374 40.7451 474.585ZM40.7812 473.953C40.7933 473.744 40.805 473.535 40.8174 473.326C40.8345 473.038 40.8525 472.749 40.8701 472.461C40.8799 472.301 40.8896 472.142 40.8994 471.982C40.8586 472.639 40.8193 473.296 40.7812 473.953ZM577.125 90.6992C656.68 79.6866 735.276 101.097 799.097 151.17C803.997 155.014 809.129 159.042 810.5 160.119C811.872 161.197 822.486 171.763 834.085 183.6C843.461 193.167 849.426 199.407 854.007 204.55C854.041 204.59 854.075 204.631 854.108 204.671C854.253 204.843 854.398 205.014 854.542 205.187C858.747 210.28 863.31 216.131 871.038 226.228C879.634 237.458 900.183 269.14 899.391 269.94C899.209 270.119 895.421 266.755 890.973 262.464C886.524 258.172 880.706 252.839 878.044 250.614C875.383 248.39 872.752 246.15 872.197 245.635C869.344 242.985 855.378 232.827 845.925 226.527C806.413 200.195 760.708 182.611 713.424 175.551C634.064 163.702 556.921 180.762 488.468 225.298C483.442 228.568 459.614 245.934 458.785 246.932C458.536 247.232 454.287 250.984 449.341 255.269C419.676 280.972 398.036 306.572 374.959 343.264C370.049 351.071 361.263 367.955 356.248 379.225C342.2 410.789 334.043 442.533 331.789 472.821C328.802 460.185 325.164 441.53 323.927 431.082C320.555 402.602 320.822 369.951 324.646 343.419C326.344 331.643 330.355 310.814 331.063 310.098C331.329 309.832 331.595 308.759 331.654 307.714C331.715 306.664 333.916 299.092 336.546 290.882C352.549 240.93 378.919 199.867 416.796 165.908C444.825 140.781 473.806 122.73 508.219 108.969C519.322 104.528 541.645 97.2897 544.827 97.0977C545.868 97.0347 546.916 96.7877 547.154 96.5498C548.012 95.6968 565.06 92.3698 577.125 90.6992ZM40.8994 471.982C40.9221 471.618 40.9453 471.253 40.9688 470.889C40.9453 471.253 40.9219 471.618 40.8994 471.982ZM40.9688 470.889C40.9738 470.811 40.9783 470.733 40.9834 470.655C41.0031 470.352 41.0236 470.048 41.0439 469.745C41.0626 469.466 41.0817 469.188 41.1006 468.909C41.0552 469.569 41.0113 470.228 40.9688 470.889ZM41.1006 468.909C41.1164 468.679 41.1323 468.449 41.1484 468.219C41.1324 468.449 41.1162 468.679 41.1006 468.909ZM41.1484 468.219C41.1555 468.118 41.1618 468.016 41.1689 467.915C41.1816 467.737 41.1951 467.558 41.208 467.38C41.2183 467.236 41.2298 467.093 41.2402 466.949C41.2093 467.372 41.1782 467.795 41.1484 468.219ZM41.2402 466.949C41.3021 466.101 41.3661 465.254 41.4326 464.407C41.3662 465.254 41.3021 466.101 41.2402 466.949ZM813.95 162.505C823.389 171.227 832.445 180.322 841.08 189.766C849.608 198.782 856.479 206.9 864.771 217.484C880.401 237.438 894.442 258.975 906.637 281.571C929.146 322.95 945.343 367.84 954.071 414.724C957.771 434.6 959.651 448.357 960.651 465.597C951.572 346.036 896.885 239.221 813.95 162.505ZM41.5234 463.273C41.581 462.563 41.6404 461.852 41.7012 461.143C41.6404 461.852 41.5809 462.563 41.5234 463.273ZM43.666 442.594C42.889 448.74 42.2337 454.924 41.7012 461.143C41.7254 460.859 41.7477 460.576 41.7725 460.293C42.0887 455.091 42.5286 450.867 43.1611 446.253C43.3081 445.181 43.4593 444.092 43.6143 442.994C43.631 442.861 43.6492 442.727 43.666 442.594ZM44.5146 436.23C44.3566 437.353 44.2026 438.478 44.0527 439.604C44.2026 438.478 44.3567 437.353 44.5146 436.23ZM45.0762 432.369C45.1998 431.541 45.3251 430.713 45.4531 429.887C45.3251 430.713 45.1998 431.541 45.0762 432.369ZM45.4531 429.887C45.472 429.765 45.4898 429.643 45.5088 429.521C45.5392 429.325 45.5699 429.129 45.6006 428.934C45.6177 428.825 45.6352 428.715 45.6523 428.606C45.5851 429.033 45.5192 429.46 45.4531 429.887ZM45.6523 428.606C45.771 427.854 45.8923 427.102 46.0146 426.351C45.8923 427.102 45.771 427.854 45.6523 428.606ZM46.0146 426.351C46.0327 426.24 46.0502 426.129 46.0684 426.018C46.0836 425.925 46.098 425.831 46.1133 425.738C46.1296 425.639 46.1467 425.54 46.1631 425.44C46.1131 425.744 46.0641 426.047 46.0146 426.351ZM46.1631 425.44C46.2521 424.901 46.3427 424.361 46.4336 423.822C46.3427 424.361 46.2521 424.901 46.1631 425.44ZM46.6191 422.729C46.7112 422.19 46.8045 421.652 46.8984 421.114C46.8045 421.652 46.7112 422.19 46.6191 422.729ZM47.0869 420.041C47.1594 419.632 47.2321 419.222 47.3057 418.813C47.2321 419.222 47.1594 419.632 47.0869 420.041ZM47.6562 416.89C47.6987 416.659 47.7413 416.429 47.7842 416.198C47.7413 416.429 47.6987 416.659 47.6562 416.89ZM49.8291 405.863C49.1092 409.294 48.4273 412.74 47.7842 416.198C47.8128 416.044 47.8403 415.889 47.8691 415.735L48.374 412.904C48.8545 410.27 49.2595 408.253 49.5449 407.126C49.5854 406.966 49.6294 406.775 49.6826 406.559C49.706 406.446 49.7304 406.333 49.7539 406.221C49.7788 406.102 49.8041 405.982 49.8291 405.863ZM49.8291 405.863C49.9341 405.363 50.0408 404.862 50.1475 404.362C50.0409 404.862 49.9341 405.363 49.8291 405.863ZM50.1475 404.362C50.1853 404.185 50.2217 404.007 50.2598 403.83C50.2878 403.699 50.3156 403.568 50.3438 403.438C50.3908 403.219 50.439 403.001 50.4863 402.782C50.3721 403.309 50.2599 403.835 50.1475 404.362ZM50.4863 402.782C50.5487 402.495 50.6119 402.208 50.6748 401.921C50.612 402.208 50.5486 402.495 50.4863 402.782ZM50.6748 401.921C50.7401 401.622 50.8042 401.324 50.8701 401.025C50.898 400.899 50.9261 400.773 50.9541 400.647C51.0057 400.415 51.0585 400.183 51.1104 399.951C50.9636 400.607 50.8187 401.264 50.6748 401.921ZM51.1104 399.951C51.1969 399.564 51.2846 399.178 51.3721 398.791C51.2846 399.178 51.1968 399.564 51.1104 399.951ZM51.3721 398.791C51.4127 398.611 51.4523 398.431 51.4932 398.251C51.5355 398.065 51.5776 397.879 51.6201 397.693C51.6549 397.542 51.6907 397.39 51.7256 397.238C51.6066 397.755 51.4893 398.273 51.3721 398.791ZM51.7256 397.238C51.8472 396.71 51.9703 396.181 52.0938 395.653C51.9703 396.181 51.8472 396.71 51.7256 397.238ZM52.0938 395.653C52.1266 395.513 52.1584 395.372 52.1914 395.231C52.2172 395.121 52.2427 395.011 52.2686 394.901C52.299 394.772 52.3308 394.643 52.3613 394.514C52.2716 394.893 52.1826 395.273 52.0938 395.653ZM52.3613 394.514C52.4674 394.065 52.5743 393.617 52.6816 393.169C52.5743 393.617 52.4674 394.065 52.3613 394.514ZM53.0293 391.725C53.1172 391.363 53.2062 391.002 53.2949 390.641C53.2062 391.002 53.1172 391.363 53.0293 391.725ZM53.2949 390.641C53.38 390.294 53.464 389.948 53.5498 389.602C53.5924 389.43 53.6359 389.258 53.6787 389.086C53.7 389.001 53.7209 388.915 53.7422 388.83C53.5915 389.433 53.4433 390.037 53.2949 390.641ZM53.7422 388.83C53.8165 388.533 53.892 388.236 53.9668 387.939C53.8919 388.236 53.8165 388.533 53.7422 388.83ZM53.9668 387.939C54.0634 387.557 54.1593 387.174 54.2568 386.791C54.2923 386.652 54.3277 386.513 54.3633 386.374C54.4059 386.208 54.4494 386.041 54.4922 385.875C54.3154 386.563 54.1404 387.251 53.9668 387.939ZM54.4922 385.875C54.5792 385.537 54.6681 385.199 54.7559 384.86C54.6681 385.199 54.5792 385.537 54.4922 385.875ZM55.1836 383.219C55.2792 382.856 55.3762 382.493 55.4727 382.131C55.3762 382.493 55.2792 382.856 55.1836 383.219ZM55.4727 382.131C55.5771 381.738 55.6797 381.345 55.7852 380.953C55.8091 380.864 55.8335 380.775 55.8574 380.687C55.8754 380.62 55.8941 380.553 55.9121 380.486C55.7642 381.034 55.6186 381.582 55.4727 382.131ZM56.5684 378.084C56.624 377.882 56.6784 377.68 56.7344 377.479C56.6784 377.68 56.624 377.882 56.5684 378.084ZM57.0742 376.271C57.248 375.651 57.4213 375.031 57.5977 374.412C57.4213 375.031 57.248 375.651 57.0742 376.271ZM57.96 373.152C58.1283 372.568 58.2981 371.984 58.4688 371.4C58.2982 371.984 58.1283 372.568 57.96 373.152ZM58.8955 369.949C59.0667 369.371 59.2388 368.793 59.4121 368.216C59.2388 368.793 59.0666 369.371 58.8955 369.949ZM59.7959 366.942C59.9974 366.278 60.2008 365.615 60.4053 364.952C60.2009 365.615 59.9974 366.278 59.7959 366.942ZM60.8633 363.473C61.1081 362.688 61.3546 361.905 61.6035 361.122C61.3546 361.905 61.1081 362.688 60.8633 363.473ZM62.1475 359.43C62.287 358.997 62.4256 358.563 62.5664 358.131C62.4256 358.563 62.287 358.997 62.1475 359.43ZM62.9912 356.835C63.1981 356.206 63.4067 355.578 63.6162 354.95C63.4067 355.578 63.1981 356.206 62.9912 356.835ZM64.0049 353.787C64.1815 353.263 64.3596 352.739 64.5381 352.215C64.3596 352.739 64.1815 353.263 64.0049 353.787ZM65.0781 350.639C65.2756 350.066 65.4752 349.494 65.6748 348.923C65.4752 349.494 65.2756 350.066 65.0781 350.639ZM66.0732 347.781C66.3926 346.875 66.7142 345.969 67.0391 345.065C66.7142 345.969 66.3926 346.875 66.0732 347.781ZM67.6045 343.508C67.7793 343.027 67.9535 342.546 68.1299 342.065C67.9535 342.546 67.7793 343.027 67.6045 343.508ZM68.667 340.613C68.8533 340.111 69.0405 339.61 69.2285 339.108C69.0405 339.61 68.8533 340.111 68.667 340.613ZM69.7676 337.678C69.9277 337.255 70.0896 336.833 70.251 336.411C70.0896 336.833 69.9277 337.255 69.7676 337.678ZM72.8135 329.858C71.943 332.034 71.0891 334.219 70.251 336.411C71.0891 334.219 71.943 332.034 72.8135 329.858ZM72.8135 329.858C72.9068 329.625 72.9991 329.391 73.0928 329.158C72.9991 329.391 72.9068 329.625 72.8135 329.858ZM73.0928 329.158C73.1427 329.034 73.1912 328.909 73.2412 328.785C73.348 328.52 73.4572 328.256 73.5645 327.991C73.6526 327.774 73.7418 327.556 73.8301 327.339C73.5835 327.945 73.3369 328.551 73.0928 329.158ZM73.8301 327.339C73.9525 327.038 74.0742 326.737 74.1973 326.437C74.0744 326.737 73.9523 327.038 73.8301 327.339ZM467.187 41.2217C289.029 54.1356 138.945 168.295 74.1973 326.437C74.2424 326.326 74.2877 326.216 74.333 326.105C74.3792 325.993 74.4254 325.88 74.4717 325.768C74.5568 325.561 74.6412 325.353 74.7266 325.147C74.7872 324.999 74.8484 324.852 74.9092 324.705C74.92 324.679 74.9306 324.653 74.9414 324.627C74.9726 324.552 75.003 324.476 75.0342 324.4C75.1603 324.096 75.2883 323.793 75.415 323.489C75.5153 323.249 75.6152 323.008 75.7158 322.768C75.8114 322.539 75.907 322.31 76.0029 322.082C76.2335 321.534 76.4664 320.986 76.6992 320.438C77.3702 318.86 78.0499 317.285 78.7393 315.713C78.8793 315.394 79.0194 315.074 79.1602 314.755C79.2975 314.444 79.4362 314.132 79.5742 313.821C79.8162 313.276 80.0576 312.731 80.3018 312.187C80.4206 311.922 80.5408 311.656 80.6602 311.392C80.926 310.802 81.1925 310.213 81.4609 309.624C81.4881 309.565 81.5148 309.505 81.542 309.445L82.2979 307.798C82.3827 307.614 82.4686 307.43 82.5537 307.246C82.7067 306.916 82.8608 306.585 83.0146 306.255C83.2601 305.728 83.5063 305.201 83.7539 304.675C83.8808 304.405 84.0083 304.136 84.1357 303.866C84.386 303.337 84.6372 302.808 84.8896 302.279C85.0464 301.951 85.2037 301.623 85.3613 301.295C85.6095 300.778 85.8591 300.262 86.1094 299.746C86.2399 299.477 86.3698 299.207 86.501 298.938C86.8042 298.316 87.1098 297.695 87.416 297.074C87.5377 296.827 87.6591 296.581 87.7812 296.334C88.0754 295.74 88.3721 295.147 88.6689 294.555C88.7676 294.358 88.8659 294.16 88.9648 293.963C89.3137 293.269 89.665 292.575 90.0176 291.883C90.0805 291.759 90.143 291.635 90.2061 291.512C91.0317 289.893 91.8668 288.278 92.7129 286.668C92.8283 286.448 92.9457 286.229 93.0615 286.01C93.3849 285.397 93.7088 284.783 94.0352 284.171C94.2709 283.729 94.5089 283.288 94.7461 282.847C94.9182 282.527 95.0898 282.206 95.2627 281.886C95.4968 281.453 95.7321 281.019 95.9678 280.587C96.1746 280.207 96.3819 279.827 96.5898 279.448C96.8071 279.052 97.0256 278.656 97.2441 278.261C97.4674 277.857 97.6915 277.452 97.916 277.049C98.1131 276.694 98.3107 276.34 98.5088 275.986C98.7545 275.547 99.0008 275.108 99.248 274.67C99.4557 274.302 99.6643 273.934 99.873 273.566C100.14 273.097 100.407 272.627 100.676 272.158C100.841 271.87 101.006 271.581 101.172 271.293C101.465 270.784 101.759 270.275 102.054 269.767C102.24 269.445 102.428 269.125 102.615 268.804C102.852 268.398 103.09 267.992 103.328 267.586C103.568 267.178 103.808 266.769 104.05 266.361C104.318 265.908 104.588 265.455 104.858 265.002C105.034 264.708 105.21 264.414 105.386 264.12C105.731 263.544 106.078 262.968 106.427 262.393C106.555 262.181 106.683 261.968 106.812 261.756C107.156 261.189 107.504 260.625 107.851 260.06C108.694 258.686 109.545 257.316 110.404 255.95C110.667 255.532 110.929 255.113 111.193 254.696C111.4 254.37 111.609 254.045 111.816 253.719C112.103 253.269 112.388 252.819 112.676 252.37C113.011 251.848 113.35 251.326 113.688 250.805C113.826 250.59 113.963 250.374 114.103 250.16C114.378 249.736 114.656 249.313 114.933 248.89C115.18 248.511 115.429 248.132 115.678 247.754C115.931 247.369 116.186 246.986 116.44 246.602C116.703 246.205 116.967 245.809 117.231 245.413C117.459 245.072 117.687 244.731 117.916 244.391C118.201 243.966 118.487 243.541 118.773 243.117C119.006 242.774 119.239 242.43 119.472 242.087C119.784 241.628 120.098 241.169 120.412 240.711C120.609 240.424 120.806 240.137 121.003 239.851C121.349 239.348 121.698 238.846 122.047 238.344C122.223 238.091 122.397 237.837 122.573 237.584C122.899 237.118 123.226 236.653 123.554 236.188C123.798 235.84 124.042 235.491 124.288 235.144C124.598 234.706 124.909 234.27 125.221 233.833C125.436 233.531 125.65 233.229 125.866 232.928C126.293 232.332 126.722 231.738 127.151 231.145C127.33 230.897 127.51 230.65 127.689 230.403C128.704 229.007 129.727 227.615 130.76 226.228C130.968 225.948 131.176 225.669 131.385 225.391C131.746 224.907 132.108 224.422 132.472 223.939C132.717 223.614 132.964 223.289 133.211 222.964C133.503 222.579 133.795 222.194 134.088 221.81C134.349 221.467 134.612 221.125 134.875 220.783C135.213 220.343 135.551 219.902 135.891 219.462C136.115 219.172 136.341 218.882 136.566 218.592C136.925 218.13 137.286 217.668 137.646 217.207C137.865 216.928 138.083 216.649 138.302 216.371C138.634 215.949 138.967 215.527 139.301 215.105C139.584 214.748 139.869 214.39 140.153 214.033C140.435 213.68 140.718 213.327 141.001 212.974C141.296 212.605 141.593 212.238 141.89 211.87C142.237 211.44 142.585 211.011 142.934 210.582C143.151 210.315 143.368 210.048 143.586 209.781C143.99 209.286 144.396 208.792 144.803 208.299C145.019 208.037 145.235 207.774 145.451 207.512C145.785 207.108 146.12 206.705 146.456 206.302C146.719 205.986 146.982 205.67 147.246 205.355C149.048 203.203 150.874 201.065 152.722 198.938C152.972 198.651 153.223 198.364 153.474 198.077C153.876 197.616 154.278 197.155 154.683 196.695C154.803 196.559 154.925 196.423 155.045 196.286C155.53 195.736 156.017 195.188 156.505 194.64C156.704 194.417 156.903 194.193 157.103 193.971C172.107 177.172 188.295 161.508 205.504 147.105L206.475 146.254C209.775 143.385 212.709 141.026 215.959 138.56C216.558 138.105 217.164 137.646 217.774 137.186C226.076 130.703 234.594 124.505 243.312 118.605C245.112 117.361 246.578 116.377 247.588 115.743C297.9 82.4955 354.671 59.0739 414.711 47.8965C435.199 44.0826 449.185 42.1972 467.187 41.2217ZM879.817 238.277C880.062 238.63 880.304 238.984 880.548 239.337C880.294 238.97 880.042 238.603 879.787 238.236C879.797 238.25 879.808 238.264 879.817 238.277ZM812.74 161.389C813.144 161.76 813.547 162.132 813.95 162.505C813.547 162.133 813.145 161.76 812.74 161.389ZM810.086 158.971C807.581 156.709 805.05 154.473 802.494 152.264C802.385 152.166 802.276 152.069 802.167 151.972C804.834 154.275 807.473 156.608 810.086 158.971ZM520.739 40.4141C533.43 40.7469 544.166 41.6314 557.749 43.2813C582.879 46.3339 608.005 51.6249 632.576 58.9649C677.786 72.3069 721.013 92.6055 760.364 119.605C777.539 131.389 788.758 139.943 802.167 151.972C725.651 85.8872 627.177 44.5382 519.166 40.3516C519.69 40.372 520.215 40.3919 520.739 40.4141ZM496.191 40.0254C489.898 40.092 483.602 40.2869 477.308 40.6094C477.276 40.611 477.244 40.6117 477.212 40.6133C476.492 40.6503 475.772 40.6901 475.053 40.7305C474.669 40.7518 474.285 40.7727 473.901 40.7949C473.665 40.8088 473.428 40.8227 473.191 40.8369C472.221 40.8946 471.251 40.9559 470.282 41.0196C470.047 41.0351 469.811 41.0506 469.575 41.0664C469.009 41.1045 468.442 41.1435 467.876 41.1836C467.645 41.1957 467.416 41.2093 467.187 41.2217C476.776 40.5266 486.448 40.1249 496.191 40.0254ZM518.674 40.3321C518.838 40.3382 519.002 40.3452 519.166 40.3516C519.002 40.3452 518.838 40.3383 518.674 40.3321ZM515.769 40.2315C515.898 40.2356 516.028 40.24 516.158 40.2442C516.028 40.24 515.898 40.2356 515.769 40.2315ZM504.134 40.0098C508.014 40.035 511.893 40.1093 515.769 40.2315C511.902 40.1097 508.024 40.0357 504.134 40.0098ZM496.567 40.0225C497.255 40.016 497.942 40.0103 498.63 40.0069C497.942 40.0105 497.255 40.0158 496.567 40.0225ZM503.379 40.0069C503.631 40.0081 503.882 40.0081 504.134 40.0098C503.882 40.0081 503.631 40.0081 503.379 40.0069ZM501.242 40C500.92 39.9999 500.597 40.0014 500.274 40.002C500.515 40.0016 500.755 40 500.995 40C501.077 40 501.16 40 501.242 40ZM80.1494 689.438C80.3414 689.867 80.5314 690.295 80.7246 690.723C80.5317 690.295 80.341 689.867 80.1494 689.438ZM80.1494 689.438C79.949 688.992 79.7469 688.545 79.5479 688.098C79.7465 688.545 79.9493 688.991 80.1494 689.438ZM40.7676 527.807C40.7522 527.539 40.7376 527.271 40.7227 527.003C40.7374 527.271 40.7524 527.539 40.7676 527.807ZM40.1865 487.841C40.1805 488.054 40.1737 488.267 40.168 488.48C40.1674 488.503 40.1666 488.525 40.166 488.547C40.1723 488.311 40.1799 488.076 40.1865 487.841ZM43.666 442.594C43.7838 441.662 43.904 440.731 44.0273 439.801C43.9039 440.731 43.7838 441.662 43.666 442.594ZM44.5146 436.23C44.6657 435.155 44.821 434.082 44.9795 433.01C44.8209 434.082 44.6658 435.155 44.5146 436.23ZM55.9121 380.486C56.1286 379.685 56.3476 378.884 56.5684 378.084C56.3476 378.884 56.1286 379.685 55.9121 380.486ZM810.086 158.971C810.768 159.587 811.448 160.206 812.126 160.827C811.447 160.207 810.768 159.587 810.086 158.971Z" fill="white"/>
</svg>
