<svg width="1001" height="1001" viewBox="0 0 1001 1001" fill="none" xmlns="http://www.w3.org/2000/svg">
<path d="M484.335 950.704C489.865 950.905 495.421 951.009 501 951.009C503.9 951.009 506.794 950.98 509.682 950.926C501.221 951.092 492.767 951.018 484.335 950.704ZM510.099 950.917C509.96 950.92 509.821 950.923 509.682 950.926C509.821 950.923 509.96 950.92 510.099 950.917ZM621.548 934.68C586.495 944.402 549.723 949.986 511.789 950.879C520.503 950.667 529.223 950.201 537.937 949.482C538.112 949.468 538.288 949.453 538.464 949.438C538.481 949.437 538.499 949.435 538.517 949.434C538.672 949.421 538.828 949.408 538.983 949.395C539.236 949.373 539.489 949.352 539.741 949.33C540.315 949.281 540.889 949.232 541.463 949.181C541.789 949.152 542.114 949.122 542.439 949.092C542.974 949.043 543.51 948.994 544.044 948.943C544.316 948.918 544.588 948.891 544.859 948.864C545.434 948.809 546.008 948.753 546.582 948.695C546.91 948.662 547.238 948.627 547.566 948.594C548.082 948.541 548.599 948.488 549.114 948.434C549.555 948.387 549.995 948.338 550.435 948.29C550.799 948.25 551.163 948.211 551.527 948.17C552.12 948.104 552.712 948.035 553.304 947.967C553.592 947.933 553.881 947.901 554.17 947.867C554.553 947.822 554.936 947.775 555.319 947.729C555.787 947.672 556.255 947.617 556.722 947.56C558.404 947.352 560.084 947.135 561.761 946.908C563.287 946.702 564.811 946.487 566.333 946.266C566.48 946.244 566.627 946.224 566.774 946.202C567.18 946.143 567.586 946.082 567.991 946.021C568.459 945.952 568.928 945.882 569.396 945.811C569.959 945.725 570.522 945.637 571.084 945.549C571.29 945.517 571.496 945.485 571.701 945.452C572.333 945.352 572.964 945.251 573.595 945.148C573.831 945.11 574.067 945.073 574.303 945.034C574.872 944.941 575.441 944.845 576.01 944.75C576.271 944.706 576.533 944.662 576.794 944.618C577.336 944.526 577.878 944.432 578.419 944.338C578.716 944.286 579.014 944.236 579.312 944.184C579.89 944.082 580.468 943.979 581.046 943.875C581.269 943.835 581.493 943.795 581.716 943.755C582.275 943.654 582.835 943.551 583.394 943.447C583.734 943.384 584.073 943.321 584.413 943.257C584.82 943.18 585.228 943.104 585.635 943.026C586.05 942.947 586.465 942.867 586.88 942.787C587.397 942.687 587.915 942.586 588.432 942.484C588.703 942.431 588.975 942.377 589.246 942.323C589.769 942.219 590.293 942.115 590.815 942.009C591.19 941.933 591.564 941.856 591.938 941.779C592.342 941.696 592.746 941.613 593.15 941.529C593.569 941.442 593.987 941.355 594.405 941.267C594.813 941.181 595.221 941.093 595.628 941.006C596.05 940.915 596.473 940.824 596.895 940.732C597.314 940.641 597.734 940.55 598.153 940.458C598.48 940.386 598.806 940.313 599.133 940.24C599.662 940.122 600.192 940.004 600.721 939.885C600.962 939.83 601.204 939.775 601.445 939.72C602.003 939.592 602.562 939.465 603.119 939.336C603.404 939.27 603.689 939.202 603.974 939.136C604.461 939.022 604.948 938.908 605.435 938.792C605.698 938.729 605.961 938.666 606.224 938.603C606.266 938.592 606.308 938.582 606.35 938.572C609.818 937.747 613.279 936.883 616.731 935.977C618.339 935.555 619.944 935.121 621.548 934.68ZM469.986 949.938C471.024 950.01 472.092 950.079 473.207 950.149C476.911 950.382 480.621 950.566 484.335 950.704C479.107 950.514 473.901 950.234 468.72 949.867C469.137 949.89 469.559 949.916 469.986 949.938ZM636.703 403.077C646.067 408.769 659.395 417.644 667.923 424.123C689.461 440.487 710.536 460.98 726.642 481.219C734.924 491.626 748.014 510.029 748.017 511.269C748.017 511.551 748.764 512.831 749.677 514.112C754.424 520.782 765.089 541.707 771 555.953C791.968 606.49 796.857 662.179 785.339 719.276C776.876 761.226 756.994 804.748 730.592 839.113C681.955 902.42 609.955 941.663 528.216 949.479C507.643 950.271 480.711 950.365 468.807 949.411C439.47 947.06 412.06 942.51 385.467 935.468C385.607 935.221 390.486 934.935 396.433 934.828C402.466 934.72 410.162 934.385 413.535 934.083C416.907 933.781 420.27 933.512 421.008 933.484C424.807 933.344 441.458 930.715 452.331 928.538C497.779 919.441 541.464 900.031 578.975 872.267C641.931 825.668 683.404 760.645 699.912 682.655C701.124 676.928 705.582 648.499 705.467 647.235C705.432 646.856 705.775 641.333 706.231 634.962C708.966 596.744 706.233 564.138 696.835 522.883C694.835 514.105 689.244 496.387 684.928 485.146C672.733 453.391 656.275 425.645 636.703 403.077ZM450.165 948.167C456.313 948.858 462.499 949.426 468.72 949.867C465.669 949.697 462.88 949.502 460.467 949.271C457.025 948.942 453.591 948.573 450.165 948.167ZM303.589 905.507C304.048 905.731 304.507 905.954 304.967 906.177C305.299 906.337 305.631 906.497 305.964 906.657C306.357 906.846 306.75 907.034 307.144 907.222C307.479 907.382 307.815 907.542 308.15 907.701C308.549 907.89 308.948 908.077 309.347 908.265C309.708 908.435 310.07 908.606 310.432 908.775C310.823 908.958 311.216 909.139 311.608 909.321C311.942 909.476 312.275 909.631 312.608 909.785C313.063 909.995 313.519 910.202 313.975 910.41C314.334 910.574 314.694 910.739 315.054 910.902C315.357 911.04 315.66 911.176 315.963 911.312C316.417 911.517 316.871 911.723 317.325 911.926C317.499 912.003 317.673 912.08 317.847 912.157C318.442 912.422 319.038 912.687 319.635 912.949C319.849 913.043 320.063 913.136 320.277 913.229C320.789 913.454 321.301 913.679 321.813 913.901C322.092 914.022 322.371 914.141 322.649 914.261C323.14 914.472 323.63 914.684 324.121 914.894C324.291 914.966 324.462 915.039 324.633 915.111C326.227 915.79 327.825 916.458 329.426 917.117C336.928 920.214 344.533 923.113 352.233 925.81C352.29 925.829 352.347 925.849 352.404 925.869C358.76 928.091 365.18 930.176 371.662 932.117C371.691 932.126 371.721 932.134 371.75 932.143C374.983 933.11 378.23 934.044 381.493 934.94C381.548 934.956 381.604 934.97 381.659 934.985C389.827 937.226 398.089 939.243 406.436 941.027C406.526 941.047 406.617 941.066 406.708 941.085C408.351 941.435 409.998 941.777 411.648 942.109C411.671 942.114 411.695 942.118 411.718 942.123C412.527 942.286 413.338 942.446 414.148 942.604C414.222 942.619 414.296 942.634 414.369 942.648C423.643 944.457 433.018 945.98 442.485 947.209C442.502 947.211 442.519 947.213 442.535 947.215C443.322 947.317 444.111 947.417 444.899 947.515C444.954 947.521 445.009 947.528 445.064 947.535C445.111 947.541 445.157 947.547 445.203 947.553L445.119 947.543C446.799 947.76 448.481 947.968 450.165 948.167C397.851 942.285 348.252 927.436 302.94 905.189C303.156 905.295 303.373 905.401 303.589 905.507ZM445.119 947.543C445.101 947.541 445.083 947.538 445.064 947.535C445.057 947.534 445.049 947.534 445.042 947.533C445.068 947.537 445.094 947.54 445.119 947.543ZM804.427 833.32C795.766 841.49 787.919 848.127 777.726 856.112C731.984 891.944 677.723 919.225 621.548 934.68C669.118 921.485 713.52 900.672 753.358 873.639C753.516 873.532 753.674 873.426 753.832 873.318L754.057 873.165C753.862 873.297 753.667 873.429 753.473 873.561C771.428 861.369 788.455 847.912 804.427 833.32ZM210.923 845.047C238.885 868.647 269.763 888.901 302.94 905.189C302.846 905.143 302.75 905.096 302.655 905.05C302.205 904.829 301.754 904.607 301.304 904.384C301.005 904.236 300.707 904.088 300.409 903.939C299.965 903.718 299.521 903.497 299.078 903.274C298.803 903.136 298.527 902.997 298.252 902.858C297.783 902.622 297.313 902.383 296.845 902.145C296.573 902.006 296.302 901.868 296.031 901.729C295.556 901.486 295.082 901.242 294.607 900.997C294.312 900.845 294.016 900.692 293.721 900.539C293.296 900.318 292.871 900.096 292.446 899.874C292.119 899.703 291.79 899.532 291.463 899.359C290.99 899.111 290.518 898.86 290.046 898.609C289.823 898.491 289.599 898.373 289.376 898.254C288.935 898.019 288.495 897.782 288.055 897.546C287.71 897.36 287.364 897.175 287.02 896.988C286.745 896.84 286.471 896.69 286.197 896.541C285.725 896.285 285.253 896.028 284.782 895.77C284.559 895.647 284.336 895.525 284.113 895.402C283.605 895.123 283.098 894.842 282.591 894.561C282.48 894.499 282.369 894.438 282.258 894.376C280.95 893.648 279.645 892.913 278.343 892.171C276.862 891.327 275.386 890.474 273.913 889.612C273.496 889.368 273.079 889.122 272.663 888.877C272.379 888.71 272.095 888.542 271.812 888.374C271.391 888.125 270.972 887.874 270.553 887.624C270.259 887.448 269.964 887.274 269.67 887.098C269.313 886.883 268.956 886.668 268.6 886.452C268.21 886.217 267.821 885.981 267.432 885.744C267.196 885.601 266.961 885.457 266.726 885.313C266.232 885.012 265.737 884.71 265.244 884.406C264.896 884.192 264.548 883.975 264.2 883.76C263.842 883.538 263.483 883.317 263.126 883.094C262.776 882.876 262.428 882.656 262.079 882.437C261.712 882.206 261.344 881.976 260.977 881.744C260.608 881.511 260.239 881.276 259.871 881.042C259.531 880.826 259.191 880.611 258.852 880.394C258.499 880.168 258.148 879.941 257.796 879.715C257.443 879.488 257.089 879.261 256.736 879.032C256.423 878.83 256.111 878.625 255.799 878.422C255.372 878.144 254.945 877.866 254.52 877.587C254.246 877.408 253.973 877.229 253.7 877.049C253.311 876.792 252.922 876.534 252.533 876.276C252.171 876.036 251.81 875.795 251.448 875.554C251.095 875.318 250.741 875.082 250.389 874.845C250.095 874.647 249.801 874.45 249.508 874.252C249.03 873.929 248.552 873.605 248.075 873.28C247.834 873.116 247.593 872.951 247.352 872.786C246.903 872.479 246.455 872.171 246.007 871.862C245.762 871.694 245.518 871.525 245.273 871.356C244.782 871.016 244.291 870.674 243.8 870.331C243.599 870.191 243.398 870.052 243.197 869.911C242.744 869.593 242.291 869.274 241.838 868.954C241.573 868.767 241.308 868.58 241.043 868.393C240.673 868.13 240.304 867.866 239.935 867.603C239.609 867.37 239.282 867.138 238.957 866.904C238.499 866.575 238.041 866.244 237.583 865.913C237.349 865.743 237.114 865.573 236.88 865.403C236.541 865.157 236.203 864.91 235.865 864.663C235.481 864.382 235.095 864.101 234.711 863.818C234.269 863.493 233.828 863.167 233.388 862.84C233.204 862.704 233.019 862.568 232.836 862.432C232.302 862.035 231.77 861.635 231.237 861.235C230.326 860.551 229.415 859.863 228.508 859.171C227.215 858.185 225.925 857.191 224.641 856.188C224.353 855.964 224.066 855.738 223.778 855.513C223.382 855.202 222.985 854.891 222.589 854.578C222.368 854.404 222.148 854.228 221.928 854.054C221.466 853.688 221.004 853.322 220.544 852.954C220.235 852.707 219.927 852.459 219.619 852.212C219.248 851.914 218.876 851.616 218.505 851.316C218.226 851.091 217.949 850.865 217.671 850.639C217.273 850.315 216.875 849.992 216.478 849.667C216.245 849.477 216.013 849.285 215.781 849.095C215.342 848.734 214.902 848.373 214.464 848.011C214.251 847.834 214.038 847.656 213.825 847.479C213.374 847.104 212.922 846.729 212.472 846.352C212.304 846.211 212.136 846.07 211.968 845.929C211.619 845.636 211.271 845.341 210.923 845.047ZM666.197 527.756C668.792 538.402 671.937 554.082 673.385 564.684C677.043 591.485 677.455 620.877 674.532 646.576C673.029 659.792 669.272 682.063 668.398 682.939C668.199 683.139 667.822 684.572 667.562 686.124C666.203 694.197 658.947 716.534 653.054 730.788C632.146 781.35 596.225 824.185 547.706 856.414C512.059 880.093 467.226 896.807 424.257 902.438C345.101 912.812 266.441 889.651 203.115 837.379C192.026 827.112 178.78 814.156 169.456 804.395C158.279 792.242 147.863 779.574 138.387 766.532C129.419 754.189 127.912 751.962 119.888 739.175C115.608 732.357 112.107 726.411 112.104 725.959C112.105 725.513 115.368 728.278 119.355 732.104C144.093 755.842 167.807 772.596 198.274 787.858C242.984 810.255 290.385 821.463 340.387 821.456C361.499 821.453 376.403 820.252 393.945 817.137C414.036 813.569 417.299 812.754 436.529 806.499C488.256 789.674 536.446 758.609 576.572 716.226C596.539 695.135 609.051 678.914 623.297 655.654C648.258 614.897 663.017 570.129 666.197 527.756ZM705.327 902.039C705.093 902.158 704.859 902.276 704.625 902.395C704.882 902.264 705.14 902.134 705.396 902.003L705.327 902.039ZM720.945 893.683C720.738 893.799 720.528 893.913 720.32 894.029C720.608 893.869 720.896 893.709 721.184 893.548L720.945 893.683ZM564.669 328.594C591.47 324.935 620.863 324.523 646.562 327.446C659.779 328.949 682.051 332.707 682.926 333.581C683.127 333.78 684.559 334.156 686.109 334.417C694.182 335.776 716.52 343.032 730.774 348.926C781.336 369.834 824.171 405.754 856.4 454.273C880.079 489.921 896.794 534.754 902.425 577.723C912.885 657.539 889.248 736.853 836.05 800.447C830.552 807.02 820.767 817.192 810.964 826.759C785.563 850.949 757.476 872.102 727.37 889.658C726.883 889.883 726.589 889.973 726.521 889.906C726.347 889.729 729.631 886.032 733.819 881.689C738.009 877.347 743.214 871.668 745.386 869.069C747.557 866.472 749.745 863.904 750.247 863.362C752.834 860.577 762.749 846.944 768.898 837.716C794.603 799.147 811.768 754.531 818.659 708.375C830.225 630.908 813.572 555.605 770.099 488.785C766.907 483.88 749.958 460.624 748.981 459.811C748.69 459.569 745.026 455.421 740.843 450.592C715.753 421.634 690.764 400.511 654.947 377.984C647.326 373.191 630.844 364.616 619.844 359.72C588.766 345.888 557.509 337.907 527.712 335.788C538.358 333.192 554.057 330.043 564.669 328.594ZM753.358 873.639C753.262 873.704 753.166 873.769 753.069 873.834C753.204 873.743 753.338 873.652 753.473 873.561C753.434 873.586 753.397 873.613 753.358 873.639ZM791.493 844.66C790.121 845.823 788.745 846.978 787.362 848.122C783.954 850.941 780.512 853.701 777.041 856.404C775.8 857.361 774.552 858.308 773.303 859.251C774.968 857.983 776.624 856.702 778.271 855.411C778.445 855.275 778.62 855.14 778.793 855.004C779.195 854.688 779.595 854.371 779.996 854.054C780.19 853.9 780.385 853.746 780.579 853.592C781.723 852.683 782.863 851.769 783.998 850.85C784.125 850.747 784.253 850.643 784.38 850.54C784.921 850.101 785.461 849.66 786 849.219C786.053 849.175 786.107 849.132 786.16 849.088C786.745 848.608 787.33 848.127 787.913 847.644C787.979 847.589 788.045 847.534 788.11 847.479C788.596 847.076 789.081 846.671 789.565 846.266L789.792 846.078C789.776 846.091 789.759 846.103 789.743 846.116C789.852 846.025 789.962 845.935 790.07 845.844C789.978 845.922 789.885 846 789.792 846.078C790.367 845.603 790.932 845.131 791.493 844.66ZM210.923 845.047C210.756 844.906 210.589 844.765 210.422 844.624C210.589 844.765 210.756 844.906 210.923 845.047ZM210.422 844.624C210.383 844.591 210.344 844.559 210.306 844.526C210.186 844.425 210.067 844.323 209.948 844.222C209.894 844.176 209.84 844.129 209.786 844.083C209.998 844.263 210.209 844.444 210.422 844.624ZM162.252 797.238C162.228 797.211 162.204 797.182 162.18 797.154C162.208 797.186 162.236 797.218 162.264 797.25C162.26 797.246 162.256 797.242 162.252 797.238C162.283 797.274 162.315 797.311 162.347 797.347C163.49 798.65 164.642 799.949 165.803 801.242C165.902 801.353 166.003 801.465 166.103 801.576C167.221 802.82 168.348 804.059 169.482 805.293C169.633 805.457 169.784 805.621 169.935 805.785C170.295 806.176 170.656 806.566 171.018 806.956C171.482 807.456 171.948 807.956 172.415 808.455C172.65 808.706 172.886 808.957 173.122 809.207C173.52 809.63 173.92 810.053 174.32 810.476C174.464 810.627 174.607 810.78 174.751 810.932C175.327 811.538 175.906 812.142 176.486 812.745C176.641 812.906 176.796 813.067 176.951 813.228C178.129 814.449 179.315 815.666 180.509 816.877C180.611 816.981 180.713 817.085 180.815 817.188C180.893 817.267 180.971 817.345 181.048 817.423C181.629 818.01 182.212 818.597 182.797 819.182C182.998 819.383 183.201 819.584 183.403 819.785C183.546 819.928 183.69 820.071 183.833 820.213C184.286 820.663 184.739 821.111 185.193 821.559C185.322 821.686 185.451 821.813 185.58 821.94C186.519 822.864 187.461 823.783 188.406 824.696C188.65 824.932 188.895 825.166 189.14 825.401C189.529 825.776 189.918 826.15 190.308 826.522C190.506 826.712 190.706 826.901 190.904 827.09C191.348 827.512 191.792 827.935 192.237 828.355C192.458 828.563 192.679 828.771 192.899 828.979C193.352 829.404 193.806 829.829 194.261 830.253C194.376 830.36 194.491 830.467 194.606 830.574C195.108 831.041 195.61 831.508 196.113 831.972C196.353 832.192 196.593 832.413 196.833 832.633C197.2 832.97 197.567 833.307 197.935 833.643C198.222 833.905 198.511 834.166 198.799 834.428C199.155 834.751 199.511 835.074 199.868 835.396C200.184 835.681 200.501 835.965 200.817 836.249C201.14 836.539 201.463 836.829 201.787 837.117C202.122 837.416 202.458 837.713 202.793 838.011C203.117 838.298 203.441 838.585 203.766 838.871C204.031 839.105 204.296 839.338 204.562 839.57C204.955 839.915 205.349 840.261 205.743 840.604C206.03 840.854 206.317 841.104 206.604 841.353C206.987 841.684 207.37 842.016 207.754 842.346C208 842.557 208.245 842.769 208.491 842.979C208.922 843.349 209.354 843.716 209.786 844.083C192.782 829.635 176.865 813.946 162.177 797.154C162.202 797.182 162.227 797.21 162.252 797.238ZM842.247 794.358C830.43 808.092 817.798 821.104 804.427 833.32C804.555 833.2 804.684 833.08 804.812 832.959C817.702 821.172 829.929 808.584 841.419 795.288C841.698 794.978 841.972 794.666 842.247 794.358ZM89.2705 682.883C107.773 724.708 132.462 763.185 162.177 797.154C159.572 794.276 157.248 791.618 155.355 789.326C152.072 785.349 148.864 781.321 145.726 777.252C132.31 760.044 120.319 742.086 109.753 723.536C109.692 723.429 109.63 723.32 109.569 723.213C109.195 722.554 108.822 721.895 108.451 721.234C108.418 721.176 108.386 721.118 108.354 721.06C107.999 720.428 107.645 719.796 107.294 719.163C107.212 719.015 107.131 718.867 107.049 718.719C102.991 711.385 99.1534 703.962 95.5361 696.459C95.488 696.359 95.4397 696.259 95.3916 696.159C95.0777 695.507 94.7657 694.854 94.4551 694.2C94.3955 694.075 94.3349 693.95 94.2754 693.824C93.954 693.146 93.6352 692.467 93.3174 691.788C93.279 691.706 93.2405 691.624 93.2021 691.542C92.5302 690.104 91.8658 688.663 91.21 687.219C91.1323 687.048 91.055 686.876 90.9775 686.705C90.4018 685.433 89.8339 684.159 89.2705 682.883ZM950.53 521.7C950.178 533.481 949.323 543.663 947.774 556.415C944.788 581 939.607 605.58 932.417 629.616C919.393 673.689 899.594 715.83 873.271 754.196C861.956 770.687 853.689 781.55 842.247 794.358C905.833 720.458 945.823 625.676 950.53 521.7ZM66.9316 385.09C67.2476 384.776 67.6003 389.039 67.7139 394.564C68.4211 428.842 73.342 457.455 84.0938 489.791C99.8714 537.243 125.463 578.685 160.825 614.037C175.756 628.964 187.144 638.653 201.751 648.854C218.48 660.539 221.363 662.27 239.384 671.444C287.858 696.124 343.899 708.233 402.242 706.637C431.274 705.842 451.593 703.22 478.113 696.846C524.306 685.743 566.173 664.709 598.309 637.238C591.648 648.021 581.291 663.397 574.938 671.458C557.607 693.443 534.884 715.796 513.932 731.47C504.631 738.427 487.483 750.038 486.502 750.041C486.136 750.041 485.211 750.598 484.449 751.278C483.683 751.961 476.937 755.668 469.454 759.52C423.929 782.952 377.385 793.095 327.801 790.39C291.11 788.387 258.646 780.842 225.395 766.588C214.666 761.989 194.262 751.577 191.933 749.513C191.171 748.838 190.277 748.285 189.948 748.285C188.768 748.283 174.704 738.812 165.223 731.637C102.709 684.326 63.2378 615.297 53.748 536.684C53.2518 532.573 52.7397 528.329 52.3994 525.507C52.1299 517.733 51.9579 509.22 51.9004 501.042C51.9176 497.591 51.9442 493.912 51.9824 490.148C52.0268 485.754 52.08 481.883 52.1426 478.428C52.8878 462.843 54.4414 447.425 56.8262 432.365C59.2133 417.295 59.7227 414.656 63.0908 399.938C64.8862 392.089 66.6155 385.408 66.9316 385.09ZM88.2139 680.476C70.9299 640.777 59.2054 598.1 54.0225 553.429C54.0236 553.439 54.0252 553.449 54.0264 553.459C54.0646 553.789 54.1046 554.118 54.1436 554.447C54.2071 554.984 54.2705 555.521 54.3359 556.058C54.3941 556.534 54.4531 557.01 54.5127 557.486C54.559 557.856 54.6052 558.225 54.6523 558.595C54.7245 559.16 54.7988 559.725 54.873 560.289C54.9262 560.693 54.979 561.097 55.0332 561.501C55.0742 561.806 55.1166 562.112 55.1582 562.417C55.2369 562.994 55.3156 563.57 55.3965 564.146C55.4412 564.465 55.4878 564.784 55.5332 565.102C55.6154 565.678 55.6979 566.254 55.7822 566.829C56.1764 569.518 56.5937 572.199 57.0352 574.872C57.0809 575.149 57.1286 575.425 57.1748 575.702C57.2874 576.376 57.4 577.05 57.5156 577.723C57.5351 577.836 57.5557 577.949 57.5752 578.062C57.7009 578.791 57.8279 579.518 57.957 580.245C58.0064 580.523 58.0566 580.801 58.1064 581.078C58.2234 581.729 58.3412 582.38 58.4609 583.03C58.5283 583.396 58.5967 583.762 58.665 584.128C58.7498 584.582 58.8348 585.035 58.9209 585.488C59.0058 585.935 59.0924 586.382 59.1787 586.829C59.2545 587.221 59.3304 587.614 59.4072 588.006C59.508 588.52 59.6094 589.034 59.7119 589.548C59.8058 590.018 59.8997 590.489 59.9951 590.959C60.0616 591.287 60.1291 591.614 60.1963 591.941C60.3063 592.478 60.4174 593.013 60.5293 593.549C60.6091 593.931 60.6888 594.313 60.7695 594.694C60.8616 595.129 60.9555 595.563 61.0488 595.997C61.1506 596.471 61.2522 596.944 61.3555 597.417C61.4131 597.681 61.4721 597.945 61.5303 598.209C61.6622 598.808 61.7934 599.408 61.9277 600.006C62.5198 602.643 63.1353 605.271 63.7734 607.89C63.8483 608.197 63.9245 608.504 64 608.812C64.1429 609.393 64.2865 609.974 64.4316 610.554C64.4704 610.709 64.5099 610.864 64.5488 611.019C64.7103 611.661 64.8729 612.303 65.0371 612.944C65.167 613.451 65.2981 613.958 65.4297 614.465C65.5206 614.815 65.6114 615.165 65.7031 615.515C65.8175 615.951 65.9332 616.387 66.0488 616.822C66.1905 617.356 66.3329 617.889 66.4766 618.422C66.5404 618.659 66.6048 618.895 66.6689 619.132C66.8259 619.71 66.9834 620.288 67.1426 620.865C67.2394 621.216 67.337 621.567 67.4346 621.918C67.5756 622.425 67.7176 622.931 67.8604 623.438C67.9595 623.789 68.0592 624.14 68.1592 624.491C68.3013 624.99 68.445 625.49 68.5889 625.988C68.7063 626.395 68.8229 626.802 68.9414 627.209C69.0252 627.496 69.11 627.783 69.1943 628.07C69.3465 628.588 69.4984 629.106 69.6523 629.623C69.7968 630.108 69.9438 630.593 70.0898 631.077C70.2132 631.486 70.3355 631.896 70.46 632.305C70.6838 633.039 70.9102 633.774 71.1377 634.507C71.1694 634.609 71.2007 634.711 71.2324 634.813C71.7571 636.5 72.292 638.183 72.8359 639.861C72.9439 640.194 73.0534 640.528 73.1621 640.86C73.3335 641.385 73.5054 641.91 73.6787 642.434C73.7608 642.682 73.8433 642.93 73.9258 643.178C74.1157 643.748 74.3069 644.319 74.499 644.889C74.6296 645.276 74.7609 645.663 74.8926 646.05C75.0584 646.537 75.2252 647.024 75.3926 647.511C75.4888 647.79 75.5859 648.069 75.6826 648.349C75.8679 648.883 76.053 649.418 76.2402 649.952C76.355 650.279 76.4705 650.607 76.5859 650.934C76.7627 651.434 76.9406 651.934 77.1191 652.434C77.2533 652.809 77.3883 653.185 77.5234 653.56C77.6792 653.992 77.8361 654.424 77.9932 654.855C78.1475 655.28 78.3024 655.704 78.458 656.128C78.582 656.466 78.7063 656.803 78.8311 657.141C79.023 657.659 79.2154 658.178 79.4092 658.696C79.5082 658.961 79.6085 659.225 79.708 659.489C79.9068 660.018 80.1059 660.546 80.3066 661.073C80.4729 661.51 80.6401 661.946 80.8076 662.382C80.9649 662.791 81.1218 663.201 81.2803 663.609C81.3501 663.79 81.4211 663.969 81.4912 664.149C82.1728 665.901 82.8656 667.646 83.5684 669.387C83.7829 669.918 83.9973 670.45 84.2139 670.98C84.3603 671.339 84.5089 671.697 84.6562 672.056C84.7042 672.172 84.7518 672.289 84.7998 672.405C84.8871 672.617 84.9739 672.83 85.0615 673.042C85.0927 673.117 85.1241 673.192 85.1553 673.268C85.2843 673.579 85.4142 673.889 85.5439 674.2C86.4173 676.297 87.3073 678.389 88.2139 680.476ZM276.021 112.118C276.465 112.12 273.7 115.383 269.874 119.37C246.136 144.108 229.383 167.82 214.121 198.288C191.724 242.998 180.516 290.399 180.523 340.4C180.526 361.513 181.728 376.417 184.843 393.96C188.41 414.05 189.225 417.313 195.479 436.543C212.305 488.27 243.37 536.461 285.753 576.587C306.843 596.553 323.065 609.066 346.325 623.312C386.839 648.123 431.315 662.855 473.463 666.153C461.129 669.068 442.933 672.618 432.741 673.825C404.941 677.117 373.068 676.855 347.17 673.122C335.675 671.465 315.341 667.55 314.643 666.858C314.384 666.6 313.336 666.339 312.316 666.281C311.293 666.222 303.901 664.074 295.886 661.506C247.126 645.884 207.041 620.145 173.893 583.171C149.364 555.81 131.744 527.518 118.312 493.927C113.977 483.088 106.911 461.299 106.724 458.192C106.662 457.177 106.422 456.154 106.189 455.921C105.356 455.081 102.108 438.442 100.478 426.666C89.7275 349.008 110.628 272.287 159.506 209.988C162.065 206.727 164.707 203.36 166.462 201.123C171.755 195.45 177.636 189.326 183.363 183.517C185.827 181.077 188.46 178.482 191.162 175.835C194.306 172.754 197.084 170.051 199.575 167.648C211.118 157.16 223.115 147.36 235.446 138.4C247.79 129.432 250.017 127.926 262.805 119.901C269.625 115.62 275.573 112.119 276.021 112.118ZM555.938 230.979C606.475 210.011 662.165 205.122 719.263 216.641C761.212 225.104 804.733 244.986 839.099 271.388C902.933 320.43 942.303 393.228 949.654 475.812C950.767 488.315 950.845 512.781 950.006 530.381C949.981 530.768 949.956 531.156 949.93 531.544C949.848 532.754 949.762 533.964 949.671 535.173C949.627 535.754 949.58 536.335 949.534 536.916C949.429 538.233 949.32 539.551 949.203 540.867C948.59 547.285 947.7 554.473 946.066 566.775C944.837 576.027 940.926 595.502 938.182 607.15C937.673 609.233 937.15 611.311 936.613 613.385C936.066 615.36 935.66 616.517 935.463 616.518C935.214 616.51 934.922 611.576 934.813 605.547C934.705 599.514 934.371 591.816 934.068 588.443C933.767 585.071 933.497 581.708 933.47 580.971C933.329 577.172 930.701 560.521 928.524 549.647C919.428 504.199 900.017 460.515 872.253 423.005C825.654 360.049 760.632 318.576 682.643 302.067C677.096 300.894 650.24 296.672 647.418 296.515L647.222 296.512C646.845 296.547 641.321 296.203 634.948 295.747C596.731 293.012 564.123 295.746 522.868 305.144C514.09 307.143 496.372 312.734 485.132 317.051C453.377 329.245 425.632 345.703 403.064 365.273C408.757 355.91 417.631 342.584 424.109 334.057C440.474 312.518 460.966 291.443 481.205 275.338C491.614 267.055 510.019 253.964 511.255 253.963C511.538 253.962 512.817 253.215 514.098 252.303C520.766 247.555 541.692 236.891 555.938 230.979ZM486.047 51.9131C492.162 51.8679 501.691 51.8942 511.831 51.9971C516.225 52.0414 520.093 52.0927 523.548 52.1553C539.133 52.9004 554.553 54.4559 569.614 56.8408C584.684 59.228 587.324 59.7364 602.041 63.1045C609.888 64.8993 616.567 66.6284 616.889 66.9453C617.203 67.2612 612.941 67.614 607.415 67.7275C573.138 68.4347 544.525 73.3567 512.188 84.1084C464.736 99.886 423.294 125.477 387.942 160.839C373.015 175.77 363.326 187.158 353.124 201.766C341.44 218.494 339.709 221.378 330.534 239.398C305.855 287.872 293.746 343.914 295.342 402.257C296.137 431.288 298.76 451.607 305.134 478.127C316.237 524.319 337.269 566.187 364.739 598.322C353.957 591.662 338.581 581.305 330.521 574.951C308.535 557.621 286.183 534.898 270.51 513.945C263.554 504.647 251.946 487.503 251.938 486.517C251.938 486.151 251.382 485.226 250.701 484.464C250.02 483.699 246.311 476.952 242.459 469.469C219.027 423.944 208.884 377.399 211.589 327.815C213.592 291.124 221.137 258.66 235.392 225.409C239.99 214.68 250.403 194.276 252.467 191.947C253.142 191.186 253.694 190.292 253.694 189.963C253.696 188.784 263.168 174.719 270.343 165.237C317.284 103.212 385.605 63.8691 463.455 53.9893L465.296 53.7627C470.011 53.1935 474.9 52.6031 477.62 52.2754C480.429 52.1286 483.238 52.0091 486.047 51.9131ZM947.204 559.208C947.138 559.715 947.07 560.223 947.003 560.73C947.102 559.983 947.2 559.236 947.296 558.488L947.204 559.208ZM52.5303 538.38C52.5541 538.67 52.5811 538.96 52.6055 539.25C52.6596 539.893 52.7127 540.536 52.7695 541.179C52.7844 541.347 52.8014 541.515 52.8164 541.683C52.8807 542.4 52.946 543.118 53.0137 543.835C53.0577 544.302 53.1029 544.768 53.1484 545.234C53.185 545.609 53.2222 545.985 53.2598 546.359C53.312 546.881 53.365 547.402 53.4189 547.923C53.4646 548.364 53.5107 548.805 53.5576 549.245C53.5994 549.637 53.6418 550.029 53.6846 550.421C53.7388 550.918 53.7947 551.414 53.8506 551.91C53.9069 552.41 53.9626 552.911 54.0205 553.41C53.3792 547.881 52.8384 542.321 52.3994 536.732C52.4425 537.282 52.4851 537.831 52.5303 538.38ZM52.3994 536.732C52.3735 536.402 52.3466 536.071 52.3213 535.74C52.3206 535.731 52.3191 535.721 52.3184 535.712C52.3443 536.052 52.3727 536.392 52.3994 536.732ZM52.2783 535.171C52.1467 533.418 52.0246 531.662 51.9131 529.903L51.835 528.613C51.8631 529.078 51.8914 529.542 51.9209 530.006C51.9535 530.519 51.9881 531.032 52.0225 531.544C52.0504 531.961 52.0774 532.377 52.1064 532.794C52.1471 533.376 52.1906 533.958 52.2334 534.539C52.2489 534.75 52.263 534.96 52.2783 535.171ZM51.835 528.613C51.8118 528.23 51.7879 527.846 51.7656 527.463C51.761 527.383 51.7565 527.304 51.752 527.225C51.7786 527.688 51.807 528.151 51.835 528.613ZM51.6777 525.871C51.6523 525.407 51.6264 524.944 51.6025 524.479C51.5986 524.404 51.5946 524.328 51.5908 524.252C51.6183 524.792 51.6484 525.332 51.6777 525.871ZM51.5908 524.252C51.5833 524.104 51.5757 523.956 51.5684 523.809C51.5756 523.956 51.5834 524.104 51.5908 524.252ZM51.5225 522.851C51.506 522.509 51.4902 522.167 51.4746 521.825C51.473 521.79 51.4713 521.755 51.4697 521.72C51.4868 522.097 51.5044 522.474 51.5225 522.851ZM949.695 466.491C950.559 477.882 951 489.392 951 501.004C951 507.94 950.841 514.84 950.53 521.7C950.538 521.444 950.547 521.187 950.555 520.929C951.337 503.445 951.082 485.863 949.8 468.302C949.767 467.694 949.73 467.09 949.695 466.491ZM51.3076 517.768C51.3218 518.155 51.3373 518.543 51.3525 518.931C51.3545 518.981 51.3564 519.031 51.3584 519.081C51.3375 518.552 51.3169 518.023 51.2979 517.494C51.3011 517.585 51.3043 517.677 51.3076 517.768ZM51.1631 513.166C51.1804 513.82 51.1986 514.474 51.2188 515.127C51.2268 515.389 51.2356 515.652 51.2441 515.914C51.2556 516.265 51.2673 516.615 51.2793 516.966C51.2246 515.398 51.1773 513.827 51.1387 512.255C51.1463 512.559 51.155 512.862 51.1631 513.166ZM51.1387 512.255C51.1375 512.208 51.1369 512.162 51.1357 512.115C51.1251 511.677 51.1165 511.239 51.1074 510.801C51.1178 511.286 51.1268 511.77 51.1387 512.255ZM51.0449 507.348C51.0457 507.403 51.0471 507.459 51.0479 507.515C51.0575 508.196 51.0684 508.877 51.0811 509.558C51.0841 509.721 51.0876 509.885 51.0908 510.049C51.0958 510.3 51.1022 510.55 51.1074 510.801C51.0829 509.651 51.0608 508.5 51.0449 507.348ZM51.0244 505.575C51.0226 505.363 51.0204 505.15 51.0186 504.938C51.0171 504.773 51.0149 504.609 51.0137 504.445C51.0135 504.426 51.0128 504.407 51.0127 504.388C51.0156 504.784 51.0205 505.179 51.0244 505.575ZM51.0039 502.399C51.0025 501.934 51 501.469 51 501.004C51 500.534 51.0025 500.064 51.0039 499.594C51.0038 499.633 51.004 499.673 51.0039 499.712C51.0036 499.835 51.0032 499.957 51.0029 500.08C51.0023 500.385 51 500.692 51 500.997C51 501.296 51.0023 501.595 51.0029 501.895C51.0032 502.039 51.0035 502.183 51.0039 502.327C51.004 502.351 51.0038 502.375 51.0039 502.399ZM51.0039 499.594C51.0041 499.551 51.0038 499.508 51.0039 499.466L51.0088 498.233C51.0061 498.687 51.0053 499.14 51.0039 499.594ZM51.0186 497.032C51.0176 497.143 51.0175 497.254 51.0166 497.364C51.0143 497.654 51.0105 497.944 51.0088 498.233C51.0112 497.833 51.0151 497.432 51.0186 497.032ZM51.0254 496.424C51.0284 496.115 51.0305 495.807 51.0342 495.498C51.0345 495.474 51.0349 495.451 51.0352 495.427C51.0311 495.759 51.0287 496.091 51.0254 496.424ZM51.0527 494.222C51.0592 493.781 51.0655 493.341 51.0732 492.9C51.0738 492.869 51.0737 492.838 51.0742 492.807C51.0757 492.722 51.0775 492.637 51.0791 492.552C51.0689 493.108 51.061 493.665 51.0527 494.222ZM51.1016 491.438C51.0938 491.809 51.086 492.181 51.0791 492.552C51.0807 492.463 51.0813 492.375 51.083 492.286L51.1016 491.438ZM51.1016 491.438C51.1095 491.057 51.1171 490.675 51.126 490.293C51.1299 490.126 51.1346 489.958 51.1387 489.791C51.1252 490.34 51.113 490.889 51.1016 491.438ZM51.1387 489.791C51.1462 489.485 51.154 489.178 51.1621 488.872C51.154 489.178 51.1462 489.485 51.1387 489.791ZM51.1621 488.872C51.1629 488.843 51.1633 488.814 51.1641 488.785C51.1782 488.256 51.194 487.728 51.21 487.199C51.1932 487.757 51.1769 488.314 51.1621 488.872ZM51.2188 486.884C51.2155 486.989 51.2131 487.094 51.21 487.199C51.2184 486.918 51.2254 486.636 51.2344 486.354C51.2289 486.531 51.2242 486.707 51.2188 486.884ZM51.2344 486.354C51.2354 486.322 51.2362 486.289 51.2373 486.256C51.263 485.458 51.2912 484.66 51.3213 483.863C51.2902 484.693 51.261 485.524 51.2344 486.354ZM51.3213 483.863C51.3423 483.302 51.3656 482.741 51.3887 482.181C51.3655 482.741 51.3425 483.302 51.3213 483.863ZM51.3887 482.181C51.3951 482.025 51.4006 481.869 51.4072 481.713C51.4108 481.629 51.4144 481.546 51.418 481.462C51.4244 481.311 51.4299 481.159 51.4365 481.008C51.4392 480.946 51.4416 480.884 51.4443 480.822C51.4244 481.275 51.4073 481.728 51.3887 482.181ZM51.4443 480.822C51.4664 480.322 51.4919 479.821 51.5156 479.321C51.4916 479.821 51.4665 480.322 51.4443 480.822ZM51.5156 479.321C51.5253 479.12 51.5341 478.918 51.5439 478.717C51.5488 478.618 51.5527 478.518 51.5576 478.419C51.5624 478.322 51.5673 478.224 51.5723 478.127C51.5523 478.525 51.5345 478.923 51.5156 479.321ZM51.5723 478.127C51.5904 477.765 51.6099 477.402 51.6289 477.04C51.6097 477.402 51.5906 477.765 51.5723 478.127ZM51.6289 477.04C51.6363 476.901 51.643 476.762 51.6504 476.623L51.7168 475.413C51.6864 475.955 51.6574 476.497 51.6289 477.04ZM51.7168 475.413C51.7351 475.087 51.7535 474.76 51.7725 474.434C51.7536 474.76 51.7351 475.087 51.7168 475.413ZM51.7725 474.434C51.781 474.287 51.7892 474.14 51.7979 473.993C51.8145 473.712 51.8324 473.43 51.8496 473.148C51.8542 473.073 51.8587 472.997 51.8633 472.922C51.8323 473.426 51.8018 473.929 51.7725 474.434ZM575.313 100.492C652.971 89.7422 729.693 110.642 791.991 159.521C796.774 163.273 801.783 167.204 803.122 168.256C804.461 169.308 814.822 179.622 826.145 191.177C835.297 200.515 841.119 206.607 845.591 211.627C845.624 211.666 845.657 211.706 845.69 211.745C845.831 211.913 845.973 212.08 846.114 212.248C850.219 217.22 854.673 222.932 862.217 232.787C870.607 243.749 890.666 274.676 889.893 275.458C889.715 275.632 886.017 272.349 881.675 268.16C877.332 263.97 871.654 258.764 869.055 256.593C866.457 254.422 863.889 252.235 863.348 251.732C860.562 249.146 846.93 239.231 837.702 233.081C799.133 207.376 754.517 190.212 708.361 183.32C630.894 171.754 555.591 188.406 488.771 231.88C483.864 235.072 460.605 252.025 459.796 252.998C459.551 253.292 455.404 256.954 450.577 261.136C421.619 286.226 400.496 311.215 377.97 347.032C373.177 354.653 364.601 371.135 359.705 382.136C345.992 412.947 338.029 443.934 335.829 473.5C332.913 461.165 329.362 442.954 328.154 432.756C324.863 404.956 325.124 373.082 328.857 347.184C330.514 335.688 334.429 315.356 335.121 314.657C335.38 314.398 335.641 313.35 335.698 312.33C335.758 311.306 337.905 303.914 340.473 295.899C356.094 247.139 381.835 207.055 418.809 173.907C446.169 149.379 474.459 131.759 508.051 118.326C518.889 113.992 540.68 106.926 543.786 106.738C544.802 106.677 545.825 106.435 546.058 106.203C546.895 105.371 563.536 102.123 575.313 100.492ZM51.8633 472.922C51.8929 472.442 51.923 471.961 51.9541 471.481C51.9231 471.961 51.8928 472.442 51.8633 472.922ZM51.9541 471.481C51.9562 471.449 51.9579 471.417 51.96 471.385C51.9792 471.089 51.9997 470.793 52.0195 470.497C52.0321 470.31 52.045 470.122 52.0576 469.935C52.0225 470.45 51.9875 470.966 51.9541 471.481ZM52.0576 469.935C52.0829 469.563 52.1076 469.192 52.1338 468.821C52.1077 469.192 52.0826 469.563 52.0576 469.935ZM52.1338 468.821C52.1364 468.785 52.139 468.748 52.1416 468.711C52.154 468.537 52.1661 468.362 52.1787 468.188C52.1931 467.988 52.209 467.788 52.2236 467.588C52.1935 467.999 52.1629 468.41 52.1338 468.821ZM52.2236 467.588C52.2812 466.804 52.3408 466.02 52.4023 465.237C52.3409 466.02 52.2812 466.804 52.2236 467.588ZM832.973 197.195C841.297 205.997 848.004 213.921 856.098 224.253C871.356 243.73 885.062 264.754 896.966 286.811C918.939 327.202 934.749 371.022 943.27 416.788C946.884 436.207 948.72 449.642 949.695 466.491C941.824 362.698 898.743 268.743 832.368 196.539C832.569 196.758 832.772 196.976 832.973 197.195ZM52.4795 464.265C52.5483 463.413 52.6198 462.562 52.6934 461.712C52.6198 462.562 52.5482 463.413 52.4795 464.265ZM54.5518 444.201C53.8208 450.004 53.2011 455.842 52.6934 461.712C52.7061 461.565 52.7176 461.418 52.7305 461.271C53.0391 456.192 53.4684 452.069 54.0859 447.564C54.2294 446.518 54.3771 445.455 54.5283 444.384C54.536 444.323 54.5441 444.262 54.5518 444.201ZM54.002 448.747C54.0037 448.732 54.006 448.716 54.0078 448.701L54.0195 448.591C54.0135 448.643 54.008 448.695 54.002 448.747ZM54.5518 444.201C54.6801 443.182 54.8121 442.164 54.9473 441.147C54.8121 442.164 54.6801 443.182 54.5518 444.201ZM54.9717 440.962C55.1092 439.931 55.25 438.9 55.3945 437.871C55.2499 438.9 55.1093 439.931 54.9717 440.962ZM55.4814 437.266C55.6077 436.375 55.7348 435.485 55.8662 434.597C55.7347 435.485 55.6078 436.375 55.4814 437.266ZM56.3906 431.15C56.4161 430.987 56.4411 430.823 56.4668 430.659C56.4811 430.568 56.4963 430.476 56.5107 430.385C56.4705 430.64 56.4304 430.895 56.3906 431.15ZM56.5107 430.385C56.6193 429.696 56.7301 429.007 56.8418 428.319C56.7301 429.007 56.6193 429.696 56.5107 430.385ZM56.8418 428.319C56.8692 428.15 56.8952 427.981 56.9229 427.812C56.9377 427.722 56.9529 427.63 56.9678 427.539C56.981 427.459 56.9946 427.378 57.0078 427.298C56.9517 427.638 56.8971 427.979 56.8418 428.319ZM57.0078 427.298C57.0979 426.751 57.1892 426.205 57.2812 425.659C57.1892 426.205 57.0979 426.751 57.0078 427.298ZM57.4121 424.885C57.5259 424.217 57.642 423.549 57.7588 422.882C57.642 423.549 57.5259 424.217 57.4121 424.885ZM57.8857 422.159C57.9843 421.601 58.0839 421.044 58.1846 420.486C58.0839 421.044 57.9843 421.601 57.8857 422.159ZM58.3906 419.356C58.4629 418.962 58.5341 418.568 58.6074 418.174C58.5341 418.568 58.4629 418.962 58.3906 419.356ZM60.5938 408.139C59.8948 411.47 59.2323 414.815 58.6074 418.174C58.6321 418.041 58.6568 417.908 58.6816 417.775L59.1738 415.013C59.6429 412.441 60.0388 410.472 60.3174 409.371C60.3569 409.215 60.3993 409.029 60.4512 408.817C60.474 408.708 60.4976 408.598 60.5205 408.488C60.5448 408.372 60.5693 408.255 60.5938 408.139ZM60.5938 408.139C60.6948 407.657 60.7978 407.176 60.9004 406.695C60.7979 407.176 60.6947 407.657 60.5938 408.139ZM60.9004 406.695C60.9388 406.515 60.976 406.334 61.0146 406.154C61.0421 406.027 61.0692 405.898 61.0967 405.771C61.1339 405.598 61.1725 405.425 61.21 405.252C61.1058 405.733 61.003 406.214 60.9004 406.695ZM61.21 405.252C61.2824 404.918 61.3546 404.584 61.4277 404.25C61.3547 404.584 61.2823 404.918 61.21 405.252ZM61.4277 404.25C61.4886 403.972 61.5489 403.694 61.6104 403.416C61.6375 403.293 61.6661 403.171 61.6934 403.048C61.7066 402.988 61.7201 402.928 61.7334 402.868C61.631 403.329 61.5287 403.789 61.4277 404.25ZM61.7334 402.868C61.8652 402.276 61.9987 401.684 62.1328 401.092C61.9987 401.684 61.8652 402.276 61.7334 402.868ZM62.1328 401.092C62.1617 400.964 62.1897 400.836 62.2188 400.709C62.2601 400.527 62.3012 400.345 62.3428 400.164C62.3652 400.066 62.3877 399.968 62.4102 399.87C62.3167 400.277 62.2252 400.684 62.1328 401.092ZM62.4102 399.87C62.5511 399.256 62.6944 398.643 62.8379 398.03C62.6944 398.643 62.5511 399.256 62.4102 399.87ZM62.8379 398.03C62.8589 397.94 62.8793 397.851 62.9004 397.761C62.9256 397.653 62.9503 397.546 62.9756 397.438C62.9903 397.376 63.0048 397.313 63.0195 397.251C62.9583 397.511 62.8987 397.771 62.8379 398.03ZM63.0195 397.251C63.1858 396.546 63.3549 395.843 63.5244 395.14C63.3548 395.843 63.1858 396.546 63.0195 397.251ZM63.6631 394.564C63.8255 393.895 63.9899 393.226 64.1553 392.558C63.9899 393.226 63.8255 393.895 63.6631 394.564ZM64.1553 392.558C64.1793 392.46 64.2024 392.363 64.2266 392.266C64.2682 392.098 64.3097 391.929 64.3516 391.762C64.3667 391.701 64.3814 391.641 64.3965 391.58C64.3152 391.906 64.2359 392.232 64.1553 392.558ZM64.3965 391.58C64.5165 391.1 64.6383 390.62 64.7598 390.141C64.6382 390.62 64.5165 391.1 64.3965 391.58ZM64.7598 390.141C64.8121 389.934 64.8644 389.728 64.917 389.521C64.9516 389.386 64.9858 389.25 65.0205 389.114C65.0351 389.057 65.0499 389 65.0645 388.943C64.9622 389.342 64.8609 389.741 64.7598 390.141ZM65.0645 388.943C65.2413 388.254 65.4206 387.565 65.6006 386.876C65.4206 387.565 65.2413 388.254 65.0645 388.943ZM65.7568 386.274C65.9309 385.612 66.1081 384.951 66.2852 384.29C66.1082 384.951 65.9309 385.612 65.7568 386.274ZM66.4502 383.671C66.46 383.635 66.4697 383.599 66.4795 383.562C66.4852 383.541 66.4904 383.52 66.4961 383.499C66.4807 383.556 66.4656 383.614 66.4502 383.671ZM68.2373 377.23C67.6426 379.314 67.0615 381.403 66.4961 383.499C67.0615 381.403 67.6425 379.314 68.2373 377.23ZM68.3711 376.764C68.6096 375.932 68.8506 375.101 69.0938 374.271C68.8506 375.101 68.6096 375.932 68.3711 376.764ZM69.3555 373.379C69.5708 372.65 69.788 371.921 70.0068 371.193C69.788 371.921 69.5707 372.65 69.3555 373.379ZM70.2637 370.342C70.5375 369.438 70.8144 368.535 71.0938 367.634C70.8144 368.535 70.5375 369.438 70.2637 370.342ZM71.3145 366.922C71.5891 366.041 71.8656 365.161 72.1455 364.282C71.8657 365.161 71.589 366.041 71.3145 366.922ZM72.3027 363.792C72.5567 362.998 72.813 362.204 73.0713 361.412C72.813 362.204 72.5567 362.998 72.3027 363.792ZM73.418 360.354C73.617 359.748 73.817 359.143 74.0186 358.539C73.8171 359.143 73.617 359.748 73.418 360.354ZM74.3994 357.4C74.6455 356.669 74.8948 355.939 75.1445 355.209C74.8948 355.939 74.6455 356.669 74.3994 357.4ZM75.4092 354.435C75.6393 353.766 75.8713 353.099 76.1045 352.432C75.8713 353.099 75.6393 353.766 75.4092 354.435ZM76.623 350.959C76.4496 351.45 76.2763 351.94 76.1045 352.432C76.2763 351.94 76.4496 351.45 76.623 350.959ZM76.623 350.959C76.9066 350.157 77.1906 349.356 77.4785 348.556C77.1906 349.356 76.9066 350.157 76.623 350.959ZM77.6768 348.011C77.9584 347.232 78.2415 346.453 78.5273 345.676C78.2415 346.453 77.9584 347.231 77.6768 348.011ZM78.9551 344.521C79.1517 343.991 79.3484 343.462 79.5469 342.933C79.3484 343.462 79.1516 343.991 78.9551 344.521ZM80.0986 341.471C80.2945 340.954 80.4918 340.438 80.6895 339.923C80.4918 340.438 80.2945 340.954 80.0986 341.471ZM82.293 335.798C82.2521 335.901 82.2107 336.005 82.1699 336.108C82.2107 336.005 82.2521 335.901 82.293 335.798ZM83.6807 332.329C83.7086 332.261 83.7369 332.192 83.7646 332.124C83.7762 332.095 83.7873 332.067 83.7988 332.038C83.7595 332.135 83.7199 332.232 83.6807 332.329ZM83.7988 332.038C84.0215 331.489 84.2449 330.94 84.4697 330.392C84.245 330.94 84.0214 331.489 83.7988 332.038ZM467.89 52.2012C294.109 64.8395 147.707 176.164 84.4697 330.392C84.4845 330.356 84.4989 330.319 84.5137 330.283C84.5587 330.173 84.6043 330.064 84.6494 329.954C84.7325 329.752 84.8151 329.55 84.8984 329.348C84.9577 329.204 85.0168 329.06 85.0762 328.916C85.0867 328.891 85.0979 328.865 85.1084 328.84C85.1388 328.766 85.1688 328.693 85.1992 328.619C85.3224 328.322 85.4466 328.026 85.5703 327.729C85.6682 327.495 85.766 327.259 85.8643 327.024C85.9575 326.802 86.05 326.579 86.1436 326.356C86.3686 325.821 86.596 325.286 86.8232 324.752C87.4782 323.211 88.1425 321.673 88.8154 320.139C88.9522 319.827 89.0891 319.515 89.2266 319.203C89.3605 318.9 89.4952 318.596 89.6299 318.293C89.8661 317.761 90.1024 317.228 90.3408 316.696C90.4568 316.438 90.5739 316.179 90.6904 315.921C90.9499 315.345 91.2097 314.77 91.4717 314.195C91.4982 314.137 91.5253 314.079 91.5518 314.021L92.2891 312.412C92.3718 312.233 92.4551 312.053 92.5381 311.874C92.6874 311.551 92.8381 311.229 92.9883 310.906C93.2279 310.392 93.4692 309.878 93.7109 309.364C93.8348 309.101 93.9586 308.837 94.083 308.574C94.3272 308.058 94.5731 307.542 94.8193 307.026C94.9724 306.706 95.1254 306.385 95.2793 306.064C95.5216 305.56 95.7655 305.056 96.0098 304.553C96.1372 304.29 96.2637 304.027 96.3916 303.765C96.6876 303.157 96.9862 302.55 97.2852 301.944C97.4039 301.703 97.5224 301.462 97.6416 301.222C97.9288 300.642 98.218 300.063 98.5078 299.484C98.604 299.292 98.7004 299.1 98.7969 298.908C99.1374 298.231 99.48 297.553 99.8242 296.877C99.8857 296.756 99.9472 296.635 100.009 296.515C100.815 294.935 101.63 293.359 102.456 291.787C102.569 291.572 102.683 291.358 102.796 291.144C103.112 290.545 103.428 289.946 103.746 289.349C103.976 288.917 104.209 288.487 104.44 288.056C104.608 287.743 104.776 287.43 104.944 287.118C105.173 286.695 105.403 286.273 105.633 285.851C105.835 285.48 106.037 285.109 106.24 284.739C106.452 284.353 106.666 283.966 106.879 283.58C107.097 283.186 107.315 282.791 107.534 282.396C107.727 282.051 107.92 281.705 108.113 281.359C108.353 280.931 108.594 280.503 108.835 280.075C109.038 279.716 109.241 279.356 109.444 278.997C109.705 278.539 109.966 278.081 110.229 277.623C110.39 277.341 110.551 277.06 110.713 276.778C110.999 276.282 111.285 275.785 111.573 275.289C111.755 274.975 111.938 274.662 112.121 274.349C112.352 273.952 112.585 273.556 112.817 273.16C113.052 272.762 113.287 272.363 113.522 271.965C113.785 271.522 114.048 271.079 114.312 270.637C114.483 270.35 114.654 270.063 114.826 269.776C115.164 269.214 115.503 268.652 115.843 268.091C115.968 267.884 116.093 267.676 116.219 267.469C116.555 266.916 116.894 266.364 117.232 265.812C118.055 264.472 118.887 263.135 119.726 261.802C119.982 261.394 120.237 260.985 120.495 260.578C120.697 260.26 120.901 259.941 121.104 259.623C121.383 259.184 121.661 258.745 121.942 258.307C122.27 257.796 122.6 257.287 122.93 256.778C123.065 256.569 123.199 256.359 123.335 256.15C123.604 255.736 123.875 255.323 124.146 254.909C124.387 254.54 124.629 254.17 124.872 253.801C125.119 253.425 125.369 253.051 125.617 252.676C125.874 252.289 126.132 251.902 126.39 251.516C126.612 251.183 126.834 250.85 127.058 250.518C127.336 250.103 127.615 249.688 127.895 249.274C128.121 248.939 128.348 248.604 128.575 248.27C128.88 247.821 129.187 247.373 129.494 246.926C129.686 246.646 129.879 246.366 130.071 246.086C130.409 245.595 130.749 245.105 131.09 244.615C131.261 244.368 131.432 244.12 131.604 243.873C131.922 243.418 132.241 242.964 132.561 242.51C132.799 242.17 133.038 241.83 133.277 241.491C133.58 241.064 133.885 240.638 134.188 240.212C134.398 239.918 134.607 239.622 134.817 239.328C135.234 238.747 135.654 238.167 136.073 237.587C136.248 237.346 136.423 237.104 136.598 236.863C137.588 235.5 138.587 234.141 139.595 232.787C139.797 232.515 140.002 232.243 140.205 231.971C140.558 231.499 140.911 231.026 141.266 230.555C141.505 230.237 141.747 229.919 141.987 229.602C142.272 229.226 142.558 228.851 142.844 228.476C143.099 228.141 143.355 227.807 143.611 227.473C143.941 227.043 144.272 226.613 144.604 226.184C144.823 225.9 145.043 225.617 145.263 225.334C145.613 224.883 145.965 224.432 146.317 223.982C146.53 223.71 146.743 223.438 146.957 223.166C147.281 222.754 147.607 222.343 147.933 221.932C148.209 221.582 148.487 221.233 148.765 220.885C149.04 220.54 149.316 220.195 149.592 219.851C149.88 219.491 150.169 219.131 150.459 218.772C150.798 218.353 151.138 217.934 151.479 217.516C151.69 217.255 151.903 216.994 152.115 216.733C152.51 216.25 152.907 215.768 153.304 215.286C153.515 215.03 153.724 214.773 153.936 214.518C154.262 214.123 154.589 213.73 154.917 213.337C155.174 213.029 155.43 212.721 155.688 212.413C157.447 210.313 159.229 208.225 161.033 206.149C161.277 205.869 161.522 205.59 161.767 205.31C162.16 204.86 162.552 204.409 162.947 203.96C163.065 203.827 163.183 203.694 163.301 203.561C163.774 203.024 164.249 202.488 164.726 201.953C164.919 201.735 165.114 201.518 165.309 201.301C179.956 184.902 195.758 169.612 212.557 155.553L213.504 154.722C216.726 151.921 219.589 149.618 222.762 147.211C223.346 146.767 223.938 146.32 224.534 145.87C232.638 139.542 240.952 133.491 249.462 127.731C251.219 126.518 252.65 125.558 253.636 124.939C302.748 92.4846 358.165 69.6208 416.773 58.71C436.732 54.9946 450.37 53.1551 467.89 52.2012ZM870.786 244.551C871.025 244.895 871.261 245.24 871.499 245.585C871.252 245.227 871.005 244.868 870.757 244.511C870.766 244.524 870.777 244.537 870.786 244.551ZM832.131 196.281C832.21 196.367 832.289 196.453 832.368 196.539C832.289 196.453 832.21 196.367 832.131 196.281ZM807.445 171.467C816.011 179.428 824.247 187.708 832.131 196.281C824.225 187.695 815.99 179.417 807.445 171.467ZM794.925 160.247C799.168 163.91 803.343 167.65 807.445 171.467C803.469 167.771 799.422 164.144 795.308 160.588C795.18 160.473 795.052 160.361 794.925 160.247ZM520.272 51.4062C532.661 51.7311 543.141 52.5945 556.4 54.2051C580.931 57.1849 605.456 62.3498 629.441 69.5146C673.573 82.5385 715.77 102.353 754.183 128.708C770.921 140.193 781.863 148.535 794.925 160.247C720.485 95.9793 624.764 55.692 519.761 51.3857C519.931 51.3928 520.102 51.399 520.272 51.4062ZM501.676 51.002C493.746 50.9921 485.81 51.1902 477.877 51.5967C477.846 51.5983 477.814 51.599 477.783 51.6006C477.081 51.6367 476.378 51.6754 475.676 51.7148C475.301 51.7356 474.926 51.7566 474.552 51.7783C474.321 51.7918 474.09 51.8055 473.859 51.8193C472.912 51.8757 471.965 51.9349 471.02 51.9971C470.789 52.0122 470.559 52.0275 470.329 52.043C469.776 52.0802 469.223 52.118 468.671 52.1572C468.41 52.171 468.149 52.187 467.89 52.2012C478.823 51.4061 489.864 51 501 51C501.225 51 501.451 51.0016 501.676 51.002ZM517.96 51.3145C518.561 51.3367 519.161 51.3611 519.761 51.3857C519.161 51.3611 518.56 51.3367 517.96 51.3145ZM515.095 51.2168C515.616 51.2328 516.137 51.2517 516.658 51.2695C516.137 51.2517 515.616 51.2329 515.095 51.2168ZM501.932 51.002C506.127 51.0105 510.308 51.0767 514.476 51.1992C510.297 51.0762 506.115 51.0095 501.932 51.002ZM89.2705 682.883C88.9161 682.082 88.5638 681.279 88.2139 680.476C88.563 681.279 88.9165 682.081 89.2705 682.883ZM51.6777 525.871C51.6824 525.957 51.6867 526.042 51.6914 526.128C51.6928 526.154 51.6939 526.179 51.6953 526.205C51.6892 526.094 51.6838 525.982 51.6777 525.871ZM51.5684 523.809C51.5633 523.705 51.5588 523.601 51.5537 523.497C51.5431 523.282 51.5329 523.066 51.5225 522.851C51.5377 523.17 51.5524 523.489 51.5684 523.809ZM51.3984 520.067C51.403 520.177 51.4075 520.286 51.4121 520.396C51.4125 520.404 51.4127 520.412 51.4131 520.421C51.4081 520.303 51.4033 520.185 51.3984 520.067ZM51.0449 507.348C51.0416 507.109 51.0381 506.87 51.0352 506.631C51.0383 506.87 51.0414 507.109 51.0449 507.348ZM51.0352 506.631C51.0345 506.583 51.0338 506.535 51.0332 506.486C51.0296 506.183 51.0271 505.879 51.0244 505.575C51.0279 505.927 51.0308 506.279 51.0352 506.631ZM51.0127 504.388C51.0078 503.725 51.0059 503.063 51.0039 502.399C51.0059 503.063 51.0078 503.725 51.0127 504.388ZM51.0527 494.222C51.0518 494.287 51.0498 494.352 51.0488 494.417C51.0475 494.511 51.0462 494.605 51.0449 494.699C51.0471 494.54 51.0504 494.381 51.0527 494.222ZM56.3906 431.15C56.3864 431.177 56.3821 431.204 56.3779 431.231C56.3771 431.237 56.3758 431.242 56.375 431.247C56.38 431.215 56.3856 431.183 56.3906 431.15ZM66.2852 384.29C66.3268 384.135 66.3674 383.979 66.4092 383.823C66.4228 383.773 66.4365 383.722 66.4502 383.671C66.3947 383.877 66.3404 384.084 66.2852 384.29ZM81.1064 338.836C81.4583 337.925 81.8123 337.016 82.1699 336.108C81.8123 337.016 81.4583 337.925 81.1064 338.836ZM82.293 335.798C82.645 334.906 83.0008 334.017 83.3584 333.128C83.0008 334.017 82.645 334.906 82.293 335.798ZM83.3584 333.128C83.389 333.052 83.4186 332.975 83.4492 332.899C83.5259 332.709 83.6032 332.519 83.6807 332.329C83.573 332.595 83.4656 332.862 83.3584 333.128Z" fill="#121212"/>
</svg>
